<svg id="Layer_1" data-name="Layer 1" xmlns="http://www.w3.org/2000/svg" viewBox="0 0 517 516"><title>Artboard 2 copy 14</title><g id="innovation_and_creation" data-name="innovation and creation"><path d="M373.86,291.13a99.2,99.2,0,0,0-4.93-15.36c-5-12.6-10.67-24.92-16.57-37.13a98.28,98.28,0,0,0-7.2-12.82A113.78,113.78,0,0,0,326,204.35a68.09,68.09,0,0,0-11.32-8c-4.2-2.41-8.61-4.4-13-6.43-5.56-2.58-11.17-5.06-16.7-7.7a62,62,0,0,0-10-4,56.88,56.88,0,0,0-9.39-1.92,13.33,13.33,0,0,1-1.41-.22c-.18,0-.43-.15-.48-.29a.61.61,0,0,1,.26-.71c.16-.13.3-.29.46-.41a46.22,46.22,0,0,0,8.67-9.48,60.71,60.71,0,0,0,6.61-12.2c.24-.6.27-1.34,1-1.78.26.4.5.81.78,1.2a5.75,5.75,0,0,0,8.1,1.71,10.88,10.88,0,0,0,2.25-1.75,15.52,15.52,0,0,0,2.28-2.89,25.7,25.7,0,0,0,3.86-15,14.27,14.27,0,0,0-1.6-6.29,7.12,7.12,0,0,0-3.29-3.24c-.43-.2-1.09-.06-1.24-.58a3.76,3.76,0,0,1,.1-1.4c.05-.4.13-.8.2-1.2.43-2.42,1-4.82,1.25-7.25.3-3.48,1-6.88,1.59-10.3a24.43,24.43,0,0,0-.79-12.12c-.43-1.29-.9-2.57-1.31-3.87a42.34,42.34,0,0,0-5.88-11.85,60,60,0,0,1-5.45-9.58c-.48-1.06-1-2.1-1.47-3.15a27.22,27.22,0,0,0-5-7.41c-4-4.16-8.1-8.31-12.22-12.38a32.57,32.57,0,0,0-11.54-7.2,24,24,0,0,0-13.66-1.15,42.49,42.49,0,0,0-10.7,3.95q-3.27,1.68-6.48,3.49a35.23,35.23,0,0,1-9.5,3.64c-.53.12-1.06.27-1.58.4a18,18,0,0,0-7.53,4,43.14,43.14,0,0,0-5.4,5.58c-3.73,4.61-7.44,9.25-11.16,13.87A30.59,30.59,0,0,0,180,80c-1,2.91-1.86,5.84-2.62,8.81a36.73,36.73,0,0,0-.82,14.61,41.72,41.72,0,0,0,8.68,20,7.23,7.23,0,0,1,1.34,1.91c-2.76.37-4.11,2.22-5,4.53a15.36,15.36,0,0,0-1,4.17,30.61,30.61,0,0,0,1.73,13.48,19.58,19.58,0,0,0,3.25,5.88,8.92,8.92,0,0,0,2.8,2.35,4.5,4.5,0,0,0,5.59-1,9.73,9.73,0,0,0,1.54-2.4c.16-.31.08-.83.72-.94l.95,2c.32.68.64,1.36,1,2s.69,1.33,1.05,2,.72,1.31,1.1,2,.77,1.28,1.18,1.91.83,1.26,1.25,1.87.86,1.23,1.31,1.83.83,1.09,1.26,1.62.95,1.16,1.44,1.72,1,1.12,1.52,1.67,1,1.08,1.58,1.6,1.09,1,1.65,1.53,1.13,1,1.7,1.47,1.16,1,1.76,1.41l1.81,1.33a8.3,8.3,0,0,1,1.76,1.2c-.15.13-.2.2-.24.2l-1.43,0a47.53,47.53,0,0,0-12.32,1.68,59.61,59.61,0,0,0-9.46,3.82,92.17,92.17,0,0,0-12,7.41,117.12,117.12,0,0,0-13.62,10.79,5.13,5.13,0,0,1-1.37,1.2c-.71.28-1.15-.58-1.79-.77-.19-.05-.36-.18-.56-.25a2.94,2.94,0,0,0-3.84,1.39c-.35.58-.6,1.22-.93,1.82-.62,1.14-1.22,2.28-1.9,3.38a6.59,6.59,0,0,1-4.76,3.2c-.61.09-1.21.22-1.81.33-2.22.39-4.44.79-6.11,2.47l-1.93-.92a11.35,11.35,0,0,0-3.11-1,5,5,0,0,0-4.52,1.36c-.49.48-1,1-1.49,1.4a28.52,28.52,0,0,0-7.17,8.83A72.52,72.52,0,0,0,124.9,232c-2.69,6.92-5.35,13.85-8.05,20.77a26.05,26.05,0,0,0-1.31,4.5c-.37,1.87-.63,3.76-.94,5.65-.63,3.9-1.23,7.81-1.91,11.7a173.69,173.69,0,0,0-2.57,20.07,3,3,0,0,1-1,2.14c-1,1-2,2-3,3.05a10,10,0,0,0-2,2.59A35.23,35.23,0,0,0,100.2,317a36.65,36.65,0,0,0,1.49,11.51,38.59,38.59,0,0,0,4.29,9.91,19.27,19.27,0,0,0,8.28,7.39,18.9,18.9,0,0,0,10,1.55,35.1,35.1,0,0,0,9.72-2.27,85.29,85.29,0,0,0,9.28-4.24,55.52,55.52,0,0,0,11.07-7.67,30.56,30.56,0,0,0,7.06-9.18,47.1,47.1,0,0,0,2.75-7c.12-.38.12-.82.66-1,.51.36,1.07.74,1.61,1.15l8.42,6.5c.43.34.87.66,1.32,1a2.45,2.45,0,0,0,3-.1,8.79,8.79,0,0,0,1.35-1.24c2.12-2.32,4.2-4.66,6.32-7,1.88-2.06,3.79-4.11,5.7-6.15a19.78,19.78,0,0,1,1.52-1.37,1.2,1.2,0,0,1,1.63-.08,8.28,8.28,0,0,0,8.2.43,20.89,20.89,0,0,0,2.87-1.55,83.11,83.11,0,0,0,15.78-13.26c1.87-2,3.71-4,5.73-5.85a11.19,11.19,0,0,1,3-2.1,3.31,3.31,0,0,1,3.8.52c.2.18.37.4.58.57A.8.8,0,0,0,237,287a5.19,5.19,0,0,0,.32-1.39,7.35,7.35,0,0,1,1.73-4.28,12.87,12.87,0,0,0,1.95-4c.41-1.18.17-1.69-1-2.32a13.74,13.74,0,0,0-3-1.25,13.45,13.45,0,0,0-11,1.46c-1.8,1.12-3.5,2.38-5.23,3.59a31.51,31.51,0,0,1-9.33,4.52,6.19,6.19,0,0,1-4-.13c-.39-.14-.5-.5-.2-.78a28.57,28.57,0,0,0,4.22-5.51c2-3,3.91-5.91,5.83-8.89q2.59-4,5.11-8.13c.81-1.34,1.54-2.73,2.26-4.12a1.33,1.33,0,0,1,1.28-.79c2.59-.14,5.18-.31,7.76-.49,2.25-.16,4.49-.31,6.73-.53,5.91-.58,11.82-1.08,17.76-1.17,5.66-.08,11.32-.27,17-.43a89.88,89.88,0,0,1,12.06.29c.95.1,1.24-.19,1.14-1.12-.2-1.83-.37-3.66-.57-5.49a62.33,62.33,0,0,0-1.05-6.66,70,70,0,0,0-4.87-14.08c-2.58-5.63-5.3-11.2-8-16.8-.58-1.23-1.15-2.46-1.73-3.7a2,2,0,0,1,1.5,0,15.32,15.32,0,0,0,3,.59,2,2,0,0,0,2.28-1.59c.11-.28,0-.68.53-.8,1.17,1.89,2.45,3.75,3.51,5.72q4.86,9,9.57,18.06a99.62,99.62,0,0,1,7.87,19.92c1.38,5.13,2.65,10.29,3.76,15.49.26,1.18.49,2.37.73,3.57a5.16,5.16,0,0,1-.72.14c-2.79.17-5.59.32-8.38.52a13.94,13.94,0,0,0-2.21.36c-2.38.59-3.37,1.68-3.47,4.13a34.67,34.67,0,0,0,1.13,10.54,5.06,5.06,0,0,0,2.41,3.41,1,1,0,0,1,.65.73c.35,2.29,1.4,4.42,1.63,6.74a9.33,9.33,0,0,0,.82,2.94,2.69,2.69,0,0,0,3,1.88,10.6,10.6,0,0,0,2-.36,43.58,43.58,0,0,1,9.91-1.3,2.46,2.46,0,0,1,1.48.19c.26,1.06.58,2.17.8,3.31.43,2.34.77,4.7,1.21,7.05a17.8,17.8,0,0,0,4.25,8.7c2.85,3.22,6.56,4.79,10.62,5.68a11.16,11.16,0,0,1,2.88,1c3.73,2,7.47,3.94,11.21,5.88a18.31,18.31,0,0,0,4.42,1.56,8.51,8.51,0,0,0,4.64-.16,33.9,33.9,0,0,0,7.58-3.51,39.43,39.43,0,0,0,10.65-10.35,12.33,12.33,0,0,0,1.88-4.06,49,49,0,0,0,1-5.22A39.56,39.56,0,0,0,373.86,291.13Zm-105-218.3a.61.61,0,0,1,.52-.17,2.49,2.49,0,0,1,.85.53c.67.68,1.33,1.37,1.93,2.11a70.77,70.77,0,0,1,9,14.07c.9,1.91,1.84,3.8,2.73,5.71a21.79,21.79,0,0,1,2.24,10.67,33.31,33.31,0,0,1-.38,5.5,2,2,0,0,1-.31.72c0,.08-.24.11-.35.08s-.29-.12-.31-.21a2.63,2.63,0,0,1-.05-.79,50,50,0,0,0,.28-7.54,17.89,17.89,0,0,0-1.56-6.72,87.87,87.87,0,0,0-12-20.78,15.13,15.13,0,0,0-2.53-2.65A.35.35,0,0,1,268.84,72.83ZM266.72,84c.09.06.11.24.13.36,0,.28-.2.35-.38.35a1.94,1.94,0,0,1-.8-.1c-5.47-2.17-11.21-3.3-16.94-4.46a31.65,31.65,0,0,1-9.55-3.47,20.14,20.14,0,0,1-3.81-2.72.8.8,0,0,1-.12-.56c0-.07.21-.13.32-.18a.91.91,0,0,1,.73.31c4,3.23,8.79,4.83,13.78,5.81a102.07,102.07,0,0,1,13.45,3.35A13.83,13.83,0,0,1,266.72,84Zm-43.39-30.1a8.47,8.47,0,0,1,1,0,14.23,14.23,0,0,0,3.6-.62c1.77-.49,3.52-1,5.32-1.42A21.27,21.27,0,0,1,251.51,56a41.36,41.36,0,0,1,10.33,12,5.55,5.55,0,0,1,1.06,3c0,.18-.09.41-.36.37a.65.65,0,0,1-.35-.15,1.08,1.08,0,0,1-.21-.34c-1.59-4.16-4.42-7.48-7.37-10.69A25.47,25.47,0,0,0,246.1,54a19.69,19.69,0,0,0-13-1.09c-1.59.38-3.15.85-4.73,1.27a12.83,12.83,0,0,1-4.22.6,1.22,1.22,0,0,1-.94-.29.45.45,0,0,1-.13-.36C223.12,54,223.24,53.86,223.33,53.86Zm-2.56,35.05c.23-.35.58-.19.88,0a111.88,111.88,0,0,0,13.4,8.19,64.06,64.06,0,0,0,12.57,5.31,84.48,84.48,0,0,0,19.25,3.39,22.32,22.32,0,0,0,4.9-.18,4.1,4.1,0,0,1,1.81-.05.41.41,0,0,1,.23.28.46.46,0,0,1-.11.35,3.19,3.19,0,0,1-1.73.49c-1.43.08-2.86.14-4,.19-12.62-.58-24.31-3.58-35.1-9.75-3-1.72-6-3.53-8.93-5.35-1-.61-1.87-1.36-2.79-2.06C220.86,89.55,220.55,89.24,220.77,88.91Zm-31.5-5.16a29.73,29.73,0,0,1,4.21-6.26c.68-.77,1.37-1.52,2-2.31a15,15,0,0,0,3.12-5.69c0-.13.11-.25.14-.39a14.29,14.29,0,0,1,5.76-8.42c1.41-1.07,2.85-2.12,4.26-3.19a21.36,21.36,0,0,0,5.73-5.76.47.47,0,0,1,.69-.19.52.52,0,0,1,.09.74A13.67,13.67,0,0,1,214,54.12a27.42,27.42,0,0,1-4.66,4.28c-1.21.89-2.43,1.77-3.62,2.69-.8.62-1.57,1.3-2.33,2a10.94,10.94,0,0,0-3.25,5.12c-.1.32-.23.64-.32,1a17.45,17.45,0,0,1-4.27,7.58,35.79,35.79,0,0,0-4.25,5.49,21.37,21.37,0,0,0-3.16,9.62,11.55,11.55,0,0,0,.39,3.84c.05.2-.12.35-.31.45a.38.38,0,0,1-.52-.18A6,6,0,0,1,187,92.6,22.34,22.34,0,0,1,189.27,83.75Zm23.19-1.19a29.13,29.13,0,0,1-2.67,10.7,30.49,30.49,0,0,1-8.47,10.62c-.8.63-1.59,1.28-2.38,1.93a22,22,0,0,0-5.14,6.3,14.6,14.6,0,0,0-1.27,3.43.35.35,0,0,1-.46.26.76.76,0,0,1-.4-.41,2,2,0,0,1,0-.8,10.12,10.12,0,0,1,1-2.67,22.58,22.58,0,0,1,5.44-6.84c1-.83,2-1.62,3-2.45a28.52,28.52,0,0,0,9.49-14.93,40.51,40.51,0,0,0,.83-5.24,4.28,4.28,0,0,1,.13-.81c.06-.17.2-.38.46-.26.1,0,.26.14.28.23C212.41,82,212.43,82.28,212.46,82.56Zm-6.91,81.94A62.92,62.92,0,0,1,197.3,150c-.18-.44-.34-.89-.56-1.31a.91.91,0,0,0-.85-.48,1,1,0,0,0-.95.65c-.2.58-.31,1.18-.48,1.77A8,8,0,0,1,193,153.5a3.09,3.09,0,0,1-4.36.7,8.88,8.88,0,0,1-2.58-2.6,20.84,20.84,0,0,1-2.65-5.5,30.94,30.94,0,0,1-1.48-9.27,19.17,19.17,0,0,1,1-6.21,7.59,7.59,0,0,1,1.41-2.47,3,3,0,0,1,3.89-.66,6.66,6.66,0,0,1,1.88,1.55,10.07,10.07,0,0,0,.85.88.7.7,0,0,0,1-.38,2.79,2.79,0,0,0,.07-.4A15.79,15.79,0,0,1,199,117a49.73,49.73,0,0,0,6.61-5.13c1-1,1.93-1.93,2.86-2.93a19.35,19.35,0,0,0,4-6.58q.81-2.2,1.61-4.41a.69.69,0,0,1,1-.48,27.54,27.54,0,0,1,5.28,2.17c4,2.1,8.07,4.25,12.25,6.1a135.12,135.12,0,0,0,25.07,8.58A94.84,94.84,0,0,0,279,116.73c1.69,0,1.75,0,2.06,1.71.38,2.14.67,4.3,1,6.46.23,1.55.41,3.11.63,4.66a7.08,7.08,0,0,0,.16.8,1,1,0,0,0,.8.82.87.87,0,0,0,.88-.41c.34-.42.63-.88,1-1.3a9.92,9.92,0,0,1,3.23-2.78,4.11,4.11,0,0,1,5.73,1.39,10.81,10.81,0,0,1,1.87,5.55,24.21,24.21,0,0,1-3.68,15.23,12.56,12.56,0,0,1-2.22,2.66,9,9,0,0,1-1.28,1c-2.73,1.76-5.3,1.1-6.86-1.77-.35-.66-.58-1.38-.88-2.06a.89.89,0,0,0-.92-.66.91.91,0,0,0-.77.58c-.22.5-.4,1-.59,1.53a57.63,57.63,0,0,1-11,18.77,41.19,41.19,0,0,1-17,11.75c-9.69,3.46-19.16,2.72-28.37-1.72A47.72,47.72,0,0,1,205.55,164.5Zm52.77,35.56a29.8,29.8,0,0,1-8.81,2.5c-2.23.24-4.47.5-6.71.66a36,36,0,0,1-11.36-1A2.54,2.54,0,0,1,229.7,201a40.74,40.74,0,0,1-5.84-17.27,6.42,6.42,0,0,1-.18-2.54,55.58,55.58,0,0,0,7.59,2.38,38.31,38.31,0,0,0,7.92.83,37.1,37.1,0,0,0,7.71-.86,39.93,39.93,0,0,0,7.54-2.5,52.67,52.67,0,0,0,7-4,43.38,43.38,0,0,1,.38,11.22,55,55,0,0,1-2,10A2.43,2.43,0,0,1,258.32,200.06Zm-.18,2.66c-.35.66-.69,1.33-1.09,2a51.27,51.27,0,0,1-9.85,11.63l-.79.64a.92.92,0,0,1-1.12.09,25,25,0,0,1-5.54-3.41,41,41,0,0,1-7.81-9.11,2.17,2.17,0,0,1-.18-.56,51.32,51.32,0,0,0,26.42-2C258.48,202.12,258.29,202.43,258.14,202.72ZM172.35,202a131.8,131.8,0,0,1,23.11-16.09,47.18,47.18,0,0,1,11.84-4.41,20.57,20.57,0,0,1,6.44-.63,1.8,1.8,0,0,1-.29,1.42c-2.12,4.42-4,9-6.74,13.06a5.84,5.84,0,0,0-.66,1.26c-.43,1.26-.42,2.47.8,3.29.75.5.64,1,.36,1.73-1.41,3.62-2.74,7.27-4.18,10.87a103.13,103.13,0,0,0-4.94,14.86c-.54.28-.81-.13-1.13-.32-1.42-.82-2.81-1.68-4.23-2.49a13.25,13.25,0,0,0-1.5-.64,1.46,1.46,0,0,0-1.84.42l-2.65,3.12a8.55,8.55,0,0,1-1.46,1.65c-.54-.11-.56-.56-.7-.92a23.68,23.68,0,0,0-2.94-5.36A17.75,17.75,0,0,0,171,216.09l-1.2-.25-1.19-.28c-.1-.65.41-1,.67-1.43a10.77,10.77,0,0,0,1.3-2.77,6.49,6.49,0,0,0-.55-4.57c-.28-.53-.58-1-.94-1.7C170.18,204,171.21,203,172.35,202Zm38.14,34c-.35.23-.5.05-.66-.06-3.33-2.47-6.68-4.93-10.16-7.19-.28-.18-.74-.48-.54-.72,1-1.29.94-2.93,1.49-4.36s.92-2.85,1.42-4.26,1.07-2.93,1.64-4.39c1.64-4.25,3.39-8.45,4.79-12.79.12-.38.31-.74.51-1.21l5.94,1.61A102.11,102.11,0,0,0,210.49,236Zm-36.22-7.36a9.37,9.37,0,0,0-7.65-4.77,8.57,8.57,0,0,0-4.35.9c-.34.15-.7.28-.9-.07-.63-1.08-1.72-1.73-2.48-2.69a5.2,5.2,0,0,1,2.7-2.72c1.39-.72,2.8-1.38,4.2-2.09a2.46,2.46,0,0,1,1.38-.26,22.84,22.84,0,0,1,7.65,2,15.4,15.4,0,0,1,6.6,6.21,23.08,23.08,0,0,1,2.1,4.64,1.43,1.43,0,0,1-.28,1.65c-1.88,2-3.72,4-5.58,6a2.48,2.48,0,0,1-.46.34c-.5-.16-.32-.57-.33-.86A17.79,17.79,0,0,0,174.27,228.67Zm-28.28,43a32.51,32.51,0,0,1-7-2,11.16,11.16,0,0,1-5.53-4.78c1.78-1.32,2.79-3.25,3.91-5a.52.52,0,0,1,.49.43c.8,3.34,3.06,5.36,6.08,6.64a12.4,12.4,0,0,0,6.36,1.1,6.75,6.75,0,0,1,.92,0,6.9,6.9,0,0,1-1.49,2.19C148.26,272.08,148.24,272.1,146,271.71Zm.47,2.44a81.39,81.39,0,0,0-8.54,12.2c-.16.28-.25.64-.79.75-1-6.58-1.85-13.17-4.1-19.47a.26.26,0,0,1,.44,0,14.09,14.09,0,0,0,6.27,4,43,43,0,0,0,6.89,1.75A.59.59,0,0,1,146.46,274.15Zm-5.38-10.86a7.26,7.26,0,0,1-1.91-4.21,11.33,11.33,0,0,1,.08-3.19,2,2,0,0,1,1.66.12,24.66,24.66,0,0,0,3,.75,3.84,3.84,0,0,0,3.94-1.61,12.88,12.88,0,0,0,1.46-2.68c.25-.56.45-1.14.68-1.71a.86.86,0,0,1,1-.58c2.11.17,3.47-1,4.48-2.67a5,5,0,0,0,.43-5.24c-.1-.18-.16-.37-.32-.74a7,7,0,0,0,3.64-4.39c.54-1.91-.23-3.61-1.19-5.25a15,15,0,0,0,1.51-.8,4.73,4.73,0,0,0,2.3-3.24,2.14,2.14,0,0,1,1.47-1.75c3.45-1.68,7.57.15,9.36,2.86a20.64,20.64,0,0,1,2.13,4.63,15.59,15.59,0,0,1,.49,6.08,1.6,1.6,0,0,1-.59,1L171.5,244c-3.76,3.87-7.17,8.05-10.59,12.21-2.26,2.73-4.46,5.51-6.63,8.31a5,5,0,0,1-2.45,1.71C148.19,267.43,143.13,265.59,141.08,263.29Zm7.43-47.75a11,11,0,0,1,3.9-1.09c.87-.17,1.75-.27,2.61-.45a8,8,0,0,0,4.87-3.13,25.74,25.74,0,0,0,2.59-4.38,15.74,15.74,0,0,1,.83-1.64,1.31,1.31,0,0,1,1.73-.64c2.54.85,5.24,4.36,3.53,7.76a8,8,0,0,1-3.37,3.7c-.9.48-1.8,1-2.72,1.39-2,.91-3.91,1.93-5,4.06l-8.89-4.72a.94.94,0,0,1-.37-.44C148.1,215.71,148.36,215.63,148.51,215.54ZM112,290.9c.58-7.36,2.06-14.57,3.27-21.83.75-4.5,1.51-9,2.42-13.48a38.15,38.15,0,0,1,2.61-7.72c.74-1.69,1.44-3.39,2.12-5.09,1.78-4.42,3.5-8.87,5.33-13.27a35.17,35.17,0,0,1,4-7.33c.6-.82,1.27-1.6,1.94-2.37.36-.41.49-.37.83.18a1.88,1.88,0,0,0,.34.48.63.63,0,0,0,.88-.2c.09-.25.1-.53.19-.78a8.36,8.36,0,0,1,2-3.53,3.34,3.34,0,0,1,3-1,9.79,9.79,0,0,1,2.92.9c4.11,2,8.17,4.05,12.12,6.35a15.78,15.78,0,0,1,3.27,2.43,2.86,2.86,0,0,1,.84,3.16,3.2,3.2,0,0,1-2.67,2.24,3.63,3.63,0,0,1-2.38-.36c-.72-.39-1.44-.77-2.15-1.18a80.1,80.1,0,0,0-8.24-4.5,18.94,18.94,0,0,0-2.11-.77.68.68,0,0,0-.83.42.73.73,0,0,0,.24.91,2.49,2.49,0,0,0,.71.4,57.83,57.83,0,0,1,8.87,4.61c.95.54,1.9,1.07,2.83,1.63a13.2,13.2,0,0,1,1.86,1.26c2.3,2,1.77,5.29-.64,7a2.48,2.48,0,0,1-1.57.34,10.19,10.19,0,0,1-3-.69,69,69,0,0,1-6.59-2.77c-.68-.3-1.35-.64-2-.93a3.65,3.65,0,0,0-1-.22.65.65,0,0,0-.65.4.66.66,0,0,0,.1.76,2,2,0,0,0,.65.47c2.49,1.1,5,2.23,7.48,3.28,1.06.44,2.19.73,3.29,1.09a3.18,3.18,0,0,1,2,4.84,9.44,9.44,0,0,1-.66,1,2.9,2.9,0,0,1-3.39,1.26,25.32,25.32,0,0,1-2.89-1c-1.65-.65-3.27-1.36-4.91-2a13.32,13.32,0,0,0-2-.57,1,1,0,0,0-1.18.56c-.15.4.15.86.76,1,2.76.61,5.19,2.05,7.82,3,.76.27.86.5.53,1.22-.51,1.11-1,2.22-1.65,3.28a2.4,2.4,0,0,1-2.6,1.23,12.3,12.3,0,0,1-2-.44,28.64,28.64,0,0,0-4.55-1.16,4.2,4.2,0,0,0-2.79.37.73.73,0,0,0-.38.86.74.74,0,0,0,.75.58c.2,0,.4-.08.6-.11a7,7,0,0,1,.8-.13c.51,0,.77.27.6.76a19.3,19.3,0,0,1-4.15,7.43c-.18.19-.38.39-.58.57a3,3,0,0,0-.89,3.35c.5,1.69,1,3.39,1.5,5.09a94.24,94.24,0,0,1,2.35,12.23,59.45,59.45,0,0,1,.75,7.53,4.31,4.31,0,0,0,.14,1,91.31,91.31,0,0,1,2,15.79,42.75,42.75,0,0,1,.1,5.31,4.06,4.06,0,0,1-1.94,3.38,15.08,15.08,0,0,1-4.43,2.08,31.91,31.91,0,0,1-5.19,1.08,17.73,17.73,0,0,1-10-1.55,10.13,10.13,0,0,1-2.65-1.9,7.8,7.8,0,0,1-2.22-4.06,41.42,41.42,0,0,1-.51-5.08c-.1-1.29-.12-2.59-.17-3.89A104.86,104.86,0,0,1,112,290.9Zm26.36,5.6a.89.89,0,0,1,.83.23q4.16,3.3,8.3,6.62c.75.6.79.69.38,1.53a28,28,0,0,1-7.43,9.5,1.33,1.33,0,0,1-.32-.09.23.23,0,0,1-.1-.15C139.63,308.24,139.24,302.34,138.36,296.5Zm24.5,19.34c-1.8,6.43-4.76,12.15-9.93,16.58A60.34,60.34,0,0,1,141.59,340a80.7,80.7,0,0,1-7.82,3.54,31.78,31.78,0,0,1-11.35,2.33,21.61,21.61,0,0,1-5.26-.61,15.91,15.91,0,0,1-6.68-3.82,16.56,16.56,0,0,1-3.25-3.92,39.17,39.17,0,0,1-4.92-13.13,32.94,32.94,0,0,1,2.16-19.21,12.81,12.81,0,0,1,3-4.58c.68-.64,1.31-1.32,2-2,.51.38.33.82.32,1.18-.09,3.49.2,6.95.36,10.43a22.17,22.17,0,0,0,.44,3.44,8.77,8.77,0,0,0,2.84,4.86,13.57,13.57,0,0,0,6.28,3.24,24.37,24.37,0,0,0,15.55-1.8,12.27,12.27,0,0,0,2.94-1.83c.52-.44,1.11-.79,1.67-1.18a21.55,21.55,0,0,0,5.29-5.06,40.62,40.62,0,0,0,4.13-6.32.49.49,0,0,1,.82-.19l.82.61c3.74,2.73,7.37,5.62,11.28,8.12C163.06,314.73,163.12,314.89,162.86,315.84Zm56.25-53.59c-.91,1.36-1.76,2.76-2.65,4.13-2.27,3.48-4.57,6.94-6.84,10.43a21.38,21.38,0,0,1-4.45,5.3,4.36,4.36,0,0,0-.43.43.8.8,0,0,0,.14,1.1,8,8,0,0,0,5.81,1.43,17.31,17.31,0,0,0,3.72-1.11,36,36,0,0,0,7.51-4.09c1.6-1.17,3.2-2.33,4.9-3.35a12,12,0,0,1,11.91-.42c.83.4.86.51.51,1.43a10.46,10.46,0,0,1-1.58,3.08,7.83,7.83,0,0,0-1.75,3.64c0,.26-.15.51-.25.88-.57-.23-.94-.4-1.33-.52a4.78,4.78,0,0,0-3.58.21,12.19,12.19,0,0,0-3.36,2.31c-1.61,1.57-3.23,3.13-4.75,4.79a99.4,99.4,0,0,1-9.95,9.41,79.89,79.89,0,0,1-7,5,14.23,14.23,0,0,1-3.09,1.56,6.86,6.86,0,0,1-6.09-.56A5.65,5.65,0,0,1,196,307a1.79,1.79,0,0,0-2.27.06,16.52,16.52,0,0,0-2.06,1.67c-2.21,2.14-4.23,4.45-6.27,6.74s-4,4.46-6,6.68a6,6,0,0,1-.43.44c-1.09,1-1.45,1.09-2.62.2-2.61-2-5.18-4-7.79-6-1.63-1.24-3.24-2.5-4.94-3.63-6.25-4.16-12.23-8.67-18-13.43-1.89-1.56-3.8-3.12-5.82-4.51a4.6,4.6,0,0,1-1.64-5.77,13,13,0,0,1,1-2,87.48,87.48,0,0,1,8.61-12.41c3.37-4,6.54-8.21,9.82-12.32A253.83,253.83,0,0,1,176.45,241c2.36-2.36,4.6-4.85,6.89-7.29.28-.3.56-.59.82-.91a.83.83,0,0,1,1.25-.14c1.39.85,2.81,1.67,4.19,2.55a129.45,129.45,0,0,1,22.32,18.17c2,2,3.87,4,5.79,6.07.46.5.88,1.05,1.33,1.55A.89.89,0,0,1,219.11,262.25Zm5.43-9.85a65.47,65.47,0,0,1-4.13,7.69c-10.18-11.38-21.27-21.46-34.67-28.95l2-2.62c.67-.86,1.36-1.7,2-2.57a1.24,1.24,0,0,1,1.63-.39,17.3,17.3,0,0,1,1.82.93c3.23,1.89,6.3,4,9.39,6.16,2,1.38,4,2.86,5.95,4.32a45.73,45.73,0,0,1,4.51,3.84c3.73,3.59,7.5,7.14,11.25,10.7A.7.7,0,0,1,224.54,252.4Zm16.67,0q-7.25.61-14.47,1.19c-.65,0-.85-.18-.56-.84a1.49,1.49,0,0,0-.39-2c-3.63-3.1-6.95-6.53-10.41-9.82l-1.33-1.27c-1.73-1.65-1.77-1.64-1.93-4a62.91,62.91,0,0,1,0-9.61,119.67,119.67,0,0,1,2.75-17.56c.37-1.52.78-3,1.2-4.54.25-.89.33-.92,1.31-.71.8.17,1.6.36,2.39.54.34.08.67.17,1,.22a.83.83,0,0,0,1-.55.73.73,0,0,0-.48-.81,10.8,10.8,0,0,0-1.56-.48c-2.85-.69-5.7-1.35-8.55-2a9.87,9.87,0,0,1-3-1.19,1.28,1.28,0,0,1-.58-1.9,7.5,7.5,0,0,1,.6-1.07,70.23,70.23,0,0,0,6.06-12c1.62-3.77,1.05-3.06,5.1-3.32a5.92,5.92,0,0,1,1,.08c1.71.18,1.79.17,1.87,2,.36,7.65,3.15,14.45,7.13,20.85a58.77,58.77,0,0,0,5.4,7.44,27.79,27.79,0,0,0,8.71,7,6,6,0,0,1,.7.4.55.55,0,0,1,.2.71c-.1.25-.24.49-.36.74a33.27,33.27,0,0,0-3.08,18.89,71.82,71.82,0,0,0,2.55,12.4,8.31,8.31,0,0,1,.13.84A5.91,5.91,0,0,1,241.21,252.4Zm36.21-49.13a.56.56,0,0,1-.52.54,4.11,4.11,0,0,1-1.81-.17c-2.45-.58-4.9-1.19-7.35-1.78a5,5,0,0,0-2-.29.68.68,0,0,0-.62.7.6.6,0,0,0,.41.63c1.18.32,2.37.65,3.56.91a2.38,2.38,0,0,1,1.76,1.51c3.06,6.68,6.2,13.33,9.27,20a74.1,74.1,0,0,1,5,14,76.31,76.31,0,0,1,1.43,10.31c0,.21,0,.41,0,.62a.56.56,0,0,1-.64.6l-4.09-.07c-5.05-.12-10.08.14-15.46.41h-6.41c-4.5,0-9,.29-13.48.64-1,.08-1.08.07-1.41-1a81.56,81.56,0,0,1-2-8.34,38.71,38.71,0,0,1-.72-10.57A31.83,31.83,0,0,1,245,220.9a6.11,6.11,0,0,1,1.89-2.34,48.61,48.61,0,0,0,12.14-14.21,19.63,19.63,0,0,0,1.86-4.31,57,57,0,0,0,2.56-12.79,34.87,34.87,0,0,0-.11-6.54c0-.33-.07-.67-.1-1-.12-1.63-.12-1.59,1.46-1.49a36.22,36.22,0,0,1,6.86,1,1.76,1.76,0,0,1,1.54,1.57c1.06,5.48,2.43,10.9,3.35,16.41.29,1.75.62,3.49.91,5.23A3.14,3.14,0,0,1,277.42,203.27Zm27.23,64.19a16.77,16.77,0,0,1,3.23.46c3.61,1,7.21,2,10.83,3a4.13,4.13,0,0,1,1.6.82,19.31,19.31,0,0,0,2.18,1.52,5.38,5.38,0,0,0,6.46-.54,10.3,10.3,0,0,0,.84-.76c1.3,1,2.58,2,3.89,3a79,79,0,0,1,8.74,7.71l.58.58a1.22,1.22,0,0,1,.33,1.48,49.05,49.05,0,0,1-2.82,5.67c-1,1.52-1.59,1.76-3.25,1.19a68.5,68.5,0,0,0-13.21-2.61c-6.15-.82-12.33-1.42-18.37-2.89l-2-.49c.69-1.26,1.3-2.31,1.86-3.4a12.56,12.56,0,0,0,1.07-8.74,13.29,13.29,0,0,0-1.86-4.07c-.32-.51-.67-1-1-1.46C304,267.34,304.35,267.43,304.65,267.46Zm24.14-.18a3.93,3.93,0,0,1-.2,3.35,3.72,3.72,0,0,1-4.4,1.67,9.6,9.6,0,0,1-3.24-2.09,4.47,4.47,0,0,1-1.14-2.79,34.87,34.87,0,0,1,.34-12,8.51,8.51,0,0,1,1.5-3.33,5.84,5.84,0,0,1,2.89-2.16c2.41-.84,4,.14,4.39,2.66,0,.27,0,.55.07.91-.14.72-.25,1.54-.47,2.32A19,19,0,0,0,328.79,267.28Zm15,14.53a77.19,77.19,0,0,0-8.53-7.63c-.81-.6-1.59-1.23-2.43-1.89.52-.54,1.11-.3,1.59-.46s.92-.24,1.38-.36a1.41,1.41,0,0,1,.23.33c.94,2.93,3.29,3.77,6,4.05.4,0,.82,0,1.22,0s.65-.25,1.05.13c0,.59-.1,1.25-.11,1.92a2.94,2.94,0,0,0,2.06,3.17,4.83,4.83,0,0,0,2.79.45,1.46,1.46,0,0,1,1.65.83,30.08,30.08,0,0,1,3.74,8.58,23.63,23.63,0,0,1,.93,6.25,11.34,11.34,0,0,1-1.31,5.71,7.54,7.54,0,0,1-3.48,3.33,24,24,0,0,1-5.82,1.84c-1.88.33-3.78.57-5.67.78a20.86,20.86,0,0,1-5.9-.38A8.67,8.67,0,0,1,327.8,305a38.23,38.23,0,0,1-4.8-8.79,27.48,27.48,0,0,1,5.91.62c2.22.31,4.44.69,6.67,1a11.7,11.7,0,0,0,2.44.06c1.53-.1,2.53-.91,2.54-2.41a9.42,9.42,0,0,1,1.8-5.27,32.61,32.61,0,0,0,2.18-4.39C345.39,283.93,345.27,283.25,343.81,281.81Zm6.36-2.6a3.06,3.06,0,0,1-4.06-.11,2,2,0,0,1-.31-1.42,23,23,0,0,1,1.47-6.88,3.84,3.84,0,0,1,.91-1.34,3,3,0,0,1,3.57-.56,3.09,3.09,0,0,1,1.93,3.28,10.82,10.82,0,0,1-.38,1.59A13.63,13.63,0,0,1,350.17,279.21Zm-3.26-12.32a51.46,51.46,0,0,1-2.23,6.12,1.82,1.82,0,0,1-1.7,1.24l-.81,0a5.85,5.85,0,0,1-3.09-.92,2.73,2.73,0,0,1-1.51-2.88,43.52,43.52,0,0,1,1.52-6.95,3.12,3.12,0,0,1,1.24-1.58,5.38,5.38,0,0,1,3.64-1,3.34,3.34,0,0,1,3.36,3.78A14,14,0,0,1,346.91,266.89Zm-9-5.17c-.52,2-1.11,4.06-1.49,6.14a2.88,2.88,0,0,1-3,2.56,2.52,2.52,0,0,1-2.7-1.74c-.67-2.34-1.51-4.66-1.48-7.18a3.65,3.65,0,0,1,.83-2.82,19.87,19.87,0,0,1,1.4-1.75,3.82,3.82,0,0,1,6.62,2.57A9.09,9.09,0,0,1,338,261.72ZM292.69,280.9a45.82,45.82,0,0,1-1.13-8.38c0-.31,0-.52,0-.72.12-2.57.46-3.26,3.35-3.69,2.08-.31,4.21-.34,6.31-.5a.92.92,0,0,1,1,.48c.61,1.06,1.35,2.05,1.92,3.12a10.82,10.82,0,0,1,.45,9.28,27.74,27.74,0,0,1-2.23,4.12.9.9,0,0,1-1,.56l-5.6-1.12A3.86,3.86,0,0,1,292.69,280.9Zm9,14.33a19.65,19.65,0,0,1-2,.4,1.31,1.31,0,0,1-1.48-.84,8.25,8.25,0,0,1-.48-1.34,47.1,47.1,0,0,0-1.8-6.91c-.2-.51.06-.79.57-.69,4,.79,8,1.54,12,2.38,3.2.67,6.45,1.07,9.69,1.51,4.59.62,9.2,1.07,13.75,2,1.4.29,2.76.71,4.14,1.08.53.15,1.05.31,1.57.48s1.08-.13,1.33.32a2.72,2.72,0,0,1-.16,2.16.67.67,0,0,1-.61.47c-.55.05-1.09.08-1.84.12-2.3-.33-4.81-.63-7.29-1.07a79.08,79.08,0,0,0-9.33-1.08c-1.16-.06-2.31-.2-3.47-.24A50.28,50.28,0,0,0,301.71,295.23Zm71,10.7a42.61,42.61,0,0,1-.94,4.6,10.9,10.9,0,0,1-1.64,3.5,38.27,38.27,0,0,1-9.69,9.6,33.29,33.29,0,0,1-7.54,3.61,6.72,6.72,0,0,1-3.82.21,18,18,0,0,1-4.06-1.39c-3-1.49-6-3-8.92-4.56a2,2,0,0,1-.44-.39c.24-.41.61-.21.9-.23a10.12,10.12,0,0,1,1.23.05c.34,0,.68.07,1,.12a36.64,36.64,0,0,0,6.54.26,8.57,8.57,0,0,0,2.79-.57,2.46,2.46,0,0,0,.82-.58.65.65,0,0,0,.08-.55.71.71,0,0,0-.41-.39,1.45,1.45,0,0,0-.8,0,14.35,14.35,0,0,1-6.07.49c-3.27-.23-6.55-.28-9.8-.58-7.83-.73-13.69-5.46-15.19-13.17-.24-1.2-.48-2.41-.65-3.62A43.13,43.13,0,0,0,315,297a1.74,1.74,0,0,1-.08-1.19,1.55,1.55,0,0,1,1.17-.19c1.5.09,3,.22,4.49.3a1.14,1.14,0,0,1,1.18.9,37.51,37.51,0,0,0,2.9,6.31,14.69,14.69,0,0,0,4.61,5.39,10.28,10.28,0,0,0,4.34,1.68,27.15,27.15,0,0,0,8.15,0,50.43,50.43,0,0,0,7.77-1.74c5.4-1.79,7.23-6.12,7.44-10.2a26.48,26.48,0,0,0-1.84-10.4,26,26,0,0,0-3.8-7.29,26.06,26.06,0,0,0,3.12-5c.62-.1.78.34,1,.62a25,25,0,0,1,4.64,6.94A41.85,41.85,0,0,1,363.2,292a30,30,0,0,1,.13,9.17,23.4,23.4,0,0,1-3,9.07,9.69,9.69,0,0,0-.7,1.69.58.58,0,0,0,.34.67.64.64,0,0,0,.91-.17c.3-.45.52-1,.79-1.43a26.72,26.72,0,0,0,3.42-11.67,27.22,27.22,0,0,0-1.7-12.25c-.5-1.26-1-2.52-1.55-3.78a25.32,25.32,0,0,0-5.27-8c-.38-.39-.72-.82-1.09-1.22a1.18,1.18,0,0,1-.32-1.12,4.67,4.67,0,0,0,0-2.23,5,5,0,0,0-4.73-3.56c-.59,0-1.19.09-1.93.15a14.27,14.27,0,0,0,.36-2.89,4.86,4.86,0,0,0-5.06-5,7.18,7.18,0,0,0-2,.29l-1.7.59c-.51-.39-.29-.91-.36-1.35a5.39,5.39,0,0,0-2-3.48c-2.32-1.81-4.45-1.75-7,.25-.72.05-.64-.33-.41-.78a8.29,8.29,0,0,0,0-3.06,4.35,4.35,0,0,0-5.61-3.58,7.76,7.76,0,0,0-5,3.92,14.61,14.61,0,0,0-1.62,6.08,32.55,32.55,0,0,0,.22,9c.05.27.08.54.11.81.11,1.13,0,1.24-1.05,1-1.32-.34-2.63-.71-3.94-1.08-2-.55-3.93-1.13-5.91-1.63a1.43,1.43,0,0,1-1.19-1.2c-.32-1.54-.65-3.07-1-4.6-1.25-5.51-2.55-11-4.14-16.45a100.86,100.86,0,0,0-6.33-15.95c-3.1-6.3-6.46-12.47-9.86-18.61-1.68-3-3.6-5.95-5.47-8.88a11.74,11.74,0,0,1-1.72-4.53c-.79-4.78-1.89-9.49-3-14.21a2.67,2.67,0,0,1-.13-1.58,17.56,17.56,0,0,1,6.37,1.75l17.23,8.06c3,1.38,5.93,2.77,8.91,4.11a79.35,79.35,0,0,1,26.08,19.4A109.62,109.62,0,0,1,343.4,226a96.66,96.66,0,0,1,5.81,9.87c3.83,7.39,7.18,15,10.62,22.57,2.51,5.53,5,11.08,7.19,16.72a117.06,117.06,0,0,1,5.18,15.72A37.09,37.09,0,0,1,372.73,305.93Z"/><path d="M384.89,349.11a6.31,6.31,0,0,0-5.35-3.26l-1,0a5.45,5.45,0,0,1-4.32-2.39c-.43-.61-.86-1.23-1.33-1.81a7.56,7.56,0,0,0-6.44-2.92,6.23,6.23,0,0,0-5.82,4.08,3.4,3.4,0,0,0,.37,3.47,3.5,3.5,0,0,0,1.79,1.27c1.14.43,2.31.81,3.45,1.23a3.71,3.71,0,0,1,1.93,1.07,1.78,1.78,0,0,1,.93.36,17.91,17.91,0,0,1,3.08,2.95,9.47,9.47,0,0,1,1.88,8.54,2.24,2.24,0,0,1-1.66-.12c-1.4-.52-2.83-1-4.19-1.57a8.52,8.52,0,0,0-6.35-.32c-.9.29-1.83.5-2.75.74a4.33,4.33,0,0,1-3-.34,1.68,1.68,0,0,1-.92-2.21,3.19,3.19,0,0,1,.63-1.26c.62-.73,1.19-1.48,1.81-2.2.5-.56,1-1.09,1.56-1.61A5.45,5.45,0,0,0,361,348h0c-.27-.46-.55-.91-.8-1.38a4.71,4.71,0,0,0-3.61-2.38,6.09,6.09,0,0,0-2.84.19,14.39,14.39,0,0,0-3.62,1.85,10.38,10.38,0,0,1-2.71,1.39,4,4,0,0,1-4.35-.87,11,11,0,0,0-2.2-1.82,2.49,2.49,0,0,0-2.53-.09,5.64,5.64,0,0,0-2.39,2.17c-2.7,4.6-3.2,9.37-.77,14.21,1.28,2.55,2.82,5,4,7.56a10.08,10.08,0,0,0,6.21,5.55,4.82,4.82,0,0,1,2.83,2.47c.23.41.43.85.62,1.28a6.3,6.3,0,0,0,5.25,3.72c1.28.19,2.57.28,3.86.4,1.73.16,2.36.73,2.67,2.49a18.51,18.51,0,0,1,.19,4.27c-.08,1.43-.09,2.86-.15,4.29,0,.45.08.83.53,1s.72-.34.75-1a67.53,67.53,0,0,0,.27-8.17.28.28,0,0,1,.1-.45c.12-.07.22,0,.28.13a4.85,4.85,0,0,0,5.13,2.22,15.52,15.52,0,0,0,7.63-3.18,2.59,2.59,0,0,0-.35-4.31.74.74,0,0,0-.94,0c-.32.29-.24.6,0,.9.08.11.21.18.29.29.84,1.11.78,1.53-.35,2.3a17.63,17.63,0,0,1-5.38,2.37,6.25,6.25,0,0,1-2.44.1,2.93,2.93,0,0,1-2.33-1.47,12.69,12.69,0,0,0-3.28-4.11c-.1-.08-.16-.21-.26-.31a1.89,1.89,0,0,1-.46-1.71c.31-1.79,2.39-3.54,3.79-3.5a22.24,22.24,0,0,1,3.26.23,15,15,0,0,0,4.87.24,4.43,4.43,0,0,0,4-4.43,14.91,14.91,0,0,0-.26-3.05,8.94,8.94,0,0,1,0-4.05c2-.17,4-.33,5.94-.51.41,0,.81-.13,1.21-.17a3.39,3.39,0,0,0,2.38-1.43,6.45,6.45,0,0,0,1-1.78C387.42,355.84,386.73,352.37,384.89,349.11Zm-10.65,21.95a2.71,2.71,0,0,1-1.7,2.14,6.29,6.29,0,0,1-3.41.36c-1.34-.19-2.69-.43-4-.57a5.78,5.78,0,0,0-5.43,2.18c-1.39,1.75-1.82,3.62-.38,5.75-2-.3-3.8-.19-5.6-.6a4.9,4.9,0,0,1-3.54-2.79l-.62-1.28a6,6,0,0,0-3.7-3.28,8.6,8.6,0,0,1-5.31-4.75c-1.2-2.45-2.57-4.79-3.87-7.18-2.29-4.22-2-8.48.16-12.68a3.5,3.5,0,0,1,.31-.53c1.71-2.11,2.56-2.36,4.42-.49.1.1.2.19.29.29,2,2.13,4.42,2.17,6.94,1.05a25.22,25.22,0,0,0,2.3-1.32c.76-.43,1.53-.86,2.32-1.25a5.31,5.31,0,0,1,3.58-.31,3.6,3.6,0,0,1,2.53,3.53,2.43,2.43,0,0,1-.68,1.66c-.81.83-1.59,1.69-2.36,2.56a22.84,22.84,0,0,0-1.93,2.36c-1.95,2.91-.61,5.67,2.87,5.93a7.74,7.74,0,0,0,2.83-.24c.92-.27,1.85-.45,2.76-.74a6.22,6.22,0,0,1,4.37.32c1.38.57,2.82,1,4.18,1.6.73.33,1.81,0,2.19.8a7.23,7.23,0,0,1,.14,2.21c.1,1.08.28,2.16.4,3.24A7.27,7.27,0,0,1,374.24,371.06Zm10.51-12.25a6.57,6.57,0,0,1-.73,1.45,2.17,2.17,0,0,1-1.86,1.1c-1.91,0-3.78.42-5.68.49a.93.93,0,0,1-.78-.19c-.19-.38,0-.78,0-1.16a10.92,10.92,0,0,0-2.77-8.66,15,15,0,0,0-7.18-4.79,21.4,21.4,0,0,1-2.67-1,2,2,0,0,1-1.12-2.82,4.79,4.79,0,0,1,4.18-3.13,6.26,6.26,0,0,1,5.58,2.37c.53.63,1,1.31,1.46,2a6.71,6.71,0,0,0,4.8,2.75c.47.06.95.09,1.43.11a4.86,4.86,0,0,1,4.29,2.66A10.58,10.58,0,0,1,384.75,358.81Z" fill="#010202"/><path d="M161.91,359.3a7.79,7.79,0,0,0-2.66-3.55,2.81,2.81,0,0,0-3.74,0,15.78,15.78,0,0,0-1.71,1.45,3.83,3.83,0,0,1-4.13.95,12.57,12.57,0,0,1-3.08-1.56,10.44,10.44,0,0,0-4.66-1.94c-2.35-.22-4.29.48-5.45,2.71-.15.29-.34.57-.52.86a5.36,5.36,0,0,0,1.84,5.12A25.56,25.56,0,0,1,141,367a2.6,2.6,0,0,1,.53,2.66,2.52,2.52,0,0,1-2.44,1.19,6.8,6.8,0,0,1-2.41-.3c-1-.31-2-.5-3-.77a6.76,6.76,0,0,0-4.39.33c-1.38.55-2.78,1.05-4.16,1.61a7.17,7.17,0,0,1-2.28.48,8.31,8.31,0,0,1,.79-7.22,13,13,0,0,1,7-5.86c1.42-.48,2.81-1,4.21-1.53h0a3.54,3.54,0,0,0,1.28-4.33,6.33,6.33,0,0,0-3.4-3.64,7.72,7.72,0,0,0-8.71,2.19c-.57.67-1.07,1.41-1.58,2.13a5.25,5.25,0,0,1-3.75,2.22c-.61.07-1.22.14-1.83.18a6,6,0,0,0-4.87,3,11.93,11.93,0,0,0-1.41,10.37c.86,2.54,2.12,3.46,4.81,3.61,1.77.11,3.53.29,5.29.43a.72.72,0,0,1,.74.78,18.71,18.71,0,0,1-.17,3.26,20.83,20.83,0,0,0-.27,2.84c0,2.58,1.16,4,3.68,4.69a8.72,8.72,0,0,0,3.45.07c1.28-.16,2.56-.37,3.85-.5a4.47,4.47,0,0,1,4.78,3,2,2,0,0,1-.38,2.27,4.55,4.55,0,0,1-.57.59,9.93,9.93,0,0,0-2.62,3.34,3.57,3.57,0,0,1-3.93,2,14.91,14.91,0,0,1-6.92-2.83,1.1,1.1,0,0,1-.25-1.62c.21-.35.5-.64.71-1s-.17-.75-.49-.71a1.91,1.91,0,0,0-.76.21,2.56,2.56,0,0,0-.17,4.19,18.14,18.14,0,0,0,5.65,2.77,9,9,0,0,0,3,.38,4.45,4.45,0,0,0,4.19-2.39c.06-.16.16-.22.28-.16s.22.27.08.45a63.67,63.67,0,0,0,.15,8.17,3.14,3.14,0,0,0,.18.78.52.52,0,0,0,.6.42.61.61,0,0,0,.51-.56,14.78,14.78,0,0,0,0-1.63c-.06-1.63-.13-3.27-.19-4.9a10.6,10.6,0,0,1,.43-3.22,2,2,0,0,1,1.68-1.58c.8-.13,1.62-.23,2.43-.28a17.6,17.6,0,0,0,3.23-.47,6,6,0,0,0,4.06-3.14c.24-.48.51-1,.73-1.46a4.82,4.82,0,0,1,3.08-2.75,9.57,9.57,0,0,0,5.22-4.05,18.82,18.82,0,0,0,1.28-2.33c.81-1.72,1.73-3.38,2.7-5a18.27,18.27,0,0,0,1.64-3.28A14.71,14.71,0,0,0,161.91,359.3Zm-40.79,11.27c.19,1.82.22,2-1.82,1.66-1.14-.17-2.3-.23-3.45-.29-2.3-.12-3.11-.63-3.91-3.12a10.21,10.21,0,0,1-.39-2.82,11.7,11.7,0,0,1,1.46-5.44,5.21,5.21,0,0,1,4.84-2.85,6.94,6.94,0,0,0,6.17-3.34c.26-.39.58-.76.85-1.14a6.32,6.32,0,0,1,4.62-2.67,5,5,0,0,1,5.3,3,2,2,0,0,1-1.08,3,12.41,12.41,0,0,1-2.3.84,15.17,15.17,0,0,0-7.55,4.93A10.72,10.72,0,0,0,121.12,370.57Zm39.27.57-.09.18c-1.41,2.41-2.76,4.84-4,7.35a8.59,8.59,0,0,1-5.31,4.76,5.93,5.93,0,0,0-3.7,3.27c-.21.43-.45.84-.64,1.27A4.66,4.66,0,0,1,143,390.8a20.61,20.61,0,0,1-5.32.41,4.11,4.11,0,0,0,.15-4.75,5.62,5.62,0,0,0-4.36-3,14.86,14.86,0,0,0-3.46.17c-.94.14-1.89.22-2.84.33a5.51,5.51,0,0,1-.81,0c-2.83-.08-4.13-1.52-3.77-4.33a30.44,30.44,0,0,0,.42-5.9,25.44,25.44,0,0,0,6.21-2.05,7.52,7.52,0,0,1,5.38-.31c1,.28,2.09.57,3.15.82a5.41,5.41,0,0,0,3.39-.37,3,3,0,0,0,1.91-4.12,8,8,0,0,0-1.69-2.76c-.7-.83-1.48-1.6-2.22-2.4-.32-.35-.65-.69-1-1.06a3.25,3.25,0,0,1,1.59-5.23,4.71,4.71,0,0,1,3.77.23c1,.48,1.9,1,2.83,1.6a9.4,9.4,0,0,0,4.33,1.64,5.08,5.08,0,0,0,3.92-1.33,13.74,13.74,0,0,1,2-1.71,1.36,1.36,0,0,1,1.53,0,4.64,4.64,0,0,1,1.81,1.89C162.13,362.73,162.48,366.89,160.39,371.14Z" fill="#010202"/><path d="M260.59,129.53a3.55,3.55,0,0,0-3.17-2.53,3.64,3.64,0,0,0-3.23,2.16,9.51,9.51,0,0,0-1.24,5,8.58,8.58,0,0,0,.83,4,3.69,3.69,0,0,0,3,2.44c1.53.1,2.51-.86,3.28-2.07,0-.06.08-.11.11-.17A10.16,10.16,0,0,0,260.59,129.53Zm-3.19,6.26a1.19,1.19,0,0,1-2,.07,2.17,2.17,0,0,1-.36-.71,6.89,6.89,0,0,1,0-4.19,3.36,3.36,0,0,1,.44-.89c.53-.79,1.19-.75,1.73.09a4.3,4.3,0,0,1,.7,2.08c0,.41,0,.81.06,1.22A4.1,4.1,0,0,1,257.4,135.79Zm1.83,2.06a.34.34,0,0,1-.16,0,.63.63,0,0,1-.68-.4,1.91,1.91,0,0,1-.09-.79c.07-.68.45-1.19.88-1.19a.71.71,0,0,1,.7.61A1.46,1.46,0,0,1,259.23,137.85Z" fill="#020202"/><path d="M249.14,310.92a6.77,6.77,0,0,0-.3-1.39c-.18-.58-.64-.62-1.16-.52,0,.27-.06.54-.08.81a9.41,9.41,0,0,0,.13,1.19,17.43,17.43,0,0,1,0,6.79,8,8,0,0,0-.12,1l0,1.19c.09.25.06.62-.15.62s-.25-.35-.15-.6V318.8a60.78,60.78,0,0,1-.12-6.33c0-1.16,0-2.31,0-3.47h0a3,3,0,0,1-.33-1.37,11.72,11.72,0,0,0-.91-2.91.54.54,0,0,0-.66-.33.64.64,0,0,0-.48.77,1.31,1.31,0,0,0,.1.4,13.06,13.06,0,0,1,.81,5.4c0,2,0,3.94,0,5.91,0,1.42.12,2.85.21,4.27a2.33,2.33,0,0,0,.44,1.34,1.25,1.25,0,0,0,1.25.5,1,1,0,0,0,.88-.73,15.32,15.32,0,0,0,.42-2c.15-1.08.18-2.17.35-3.24A24.41,24.41,0,0,0,249.14,310.92Z" fill="#090808"/><path d="M248.46,286.65a50.52,50.52,0,0,0,.8,8.93,2.93,2.93,0,0,0,.73,1.65.8.8,0,0,0,.51.23c.25,0,.33-.21.37-.4a4,4,0,0,0,0-1.62,22.47,22.47,0,0,1-.53-8.09,7.06,7.06,0,0,0-.68-4.18,2.43,2.43,0,0,1-.47-1.31.75.75,0,0,1,.32-.5.71.71,0,0,1,.57,0,1.77,1.77,0,0,1,.53.59,7.92,7.92,0,0,1,1.17,3.86,9.38,9.38,0,0,1,0,1.84,19.58,19.58,0,0,0,.5,7.47,4.53,4.53,0,0,1-.53,3.53,1.1,1.1,0,0,1-1.42.44,3.65,3.65,0,0,1-2.13-2.34,9.25,9.25,0,0,1-.4-1.79c-.21-1.69-.38-3.38-.57-5.07a20.89,20.89,0,0,1,0-5.3,2.63,2.63,0,0,0-.66-2.63.5.5,0,0,1,.06-.73.69.69,0,0,1,.76-.09,1.77,1.77,0,0,1,1.09,1.39,7.48,7.48,0,0,1,.1,1.42C248.47,284.87,248.46,285.76,248.46,286.65Z" fill="#060505"/><path d="M518.88,455.84q-13.31.15-26.61.32l-45.23.59c-3,0-6,0-9,.09a2.09,2.09,0,0,1-2.07-.94,12.45,12.45,0,0,0-2.85-2.9L427,448.23c-2.58-2-5.16-4-7.55-6.25a8.83,8.83,0,0,1-2.71-5.34c-.21-1.55-.4-3.11-.51-4.67-.37-5.09-.9-10.18-.52-15.3a19.49,19.49,0,0,0-.1-2.64,13.62,13.62,0,0,1-.13-1.42c0-.52-.44-1-.14-1.5a3.66,3.66,0,0,1,1.47-.19c.81-.07,1.62-.15,2.43-.29a1.07,1.07,0,0,0,1-1.1c.06-.75.1-1.5.09-2.25a1.41,1.41,0,0,0-1.2-1.43,10,10,0,0,0-1.81-.27c-2.59-.12-5.17-.31-7.76-.25-1.76,0-3.53,0-5.29,0a7.42,7.42,0,0,0-1.42.1,1.46,1.46,0,0,0-1.23,1.22,9.73,9.73,0,0,0-.15,2.64c.09,1,.33,1.21,1.25,1.27,1.23.07,2.45.09,3.68.15,1.05.05,1.12.15,1.21,1.17.28,3.12.55,6.25.83,9.37a127.49,127.49,0,0,1,.54,13.68,8.76,8.76,0,0,1-1.25,4.47c-.52.87-1.12,1.69-1.72,2.51-1.08,1.49-2.25,2.91-3.26,4.45A70,70,0,0,1,394,456.77a2.12,2.12,0,0,1-1.61.71c-2.59,0-5.18,0-7.77.06a2.45,2.45,0,0,1-.55-.13,2.2,2.2,0,0,1,.13-1.23,16.38,16.38,0,0,0,.32-6.08A22.61,22.61,0,0,0,379,438.2q-2-2.2-4.07-4.3a15.69,15.69,0,0,1-4.59-8.92,129,129,0,0,1-1.4-14,21,21,0,0,1,0-3.63c.8-.22,1.54-.39,2.25-.62a6.78,6.78,0,0,0,2.36-1.17c1.25-1.05,1.18-2.25-.2-3.16a6.55,6.55,0,0,0-2.26-.91,24.74,24.74,0,0,0-10.14.13,9,9,0,0,0-2.84,1.11,2.28,2.28,0,0,0-1.29,1.71,1.79,1.79,0,0,0,1,1.84,8.64,8.64,0,0,0,3.27,1.07c1.32.17,1.34.26,1.44,1.51,0,.2,0,.41,0,.61.3,5,.22,10.07.06,15.11a6.17,6.17,0,0,1-1.41,3.75c-1,1.22-2,2.39-3.07,3.53a68.83,68.83,0,0,0-7.34,9,21.63,21.63,0,0,0-3.8,15.28c.08.59.15,1.17.22,1.76a6.81,6.81,0,0,1-.74.12l-12.48.19c-.27,0-.55,0-.82,0a.68.68,0,0,1-.67-.63c-.06-.41-.11-.82-.15-1.22-.39-3.94-.66-7.88-1.21-11.8s-1.05-7.84-1.56-11.76c-.47-3.65-1-7.3-1.41-10.95s-.81-7.46-1.33-11.18c-.75-5.47-1.31-11-1.87-16.46-.48-4.68-1-9.35-1.48-14-.35-3.47-.72-6.93-.95-10.39q-.78-11.64-1.41-23.29c-.46-8.44-1.21-16.87-1.31-25.34,0-.73-.21-1.06-.62-1.13s-.82.35-.82,1.16c0,2.59,0,5.18.12,7.77.22,4.5.53,9,.8,13.48.19,3.2.36,6.4.56,9.6.3,5,.67,9.94.94,14.91.31,5.59.93,11.15,1.5,16.71.32,3.19.68,6.37,1,9.56s.62,6.52,1,9.77c.56,4.81,1.18,9.61,1.78,14.41.75,6,1.47,12.05,2.26,18.06.87,6.56,1.88,13.1,2.39,19.69A9.7,9.7,0,0,1,331,458c-.94.58-2,.31-3,.32q-11.87.18-23.74.28h-.41a.52.52,0,0,1-.55-.66,8,8,0,0,0-1.18-5.07c-.66-1.19-1.14-2.48-1.77-3.69s-1.38-2.66-2.19-3.92a66.46,66.46,0,0,1-3.32-5.87c-.17-.34-.47-.68-.24-1.19l.73-.22a20.34,20.34,0,0,0,6.36-3.19,3.27,3.27,0,0,0,1.3-3.42c-.06-.33-.13-.67-.22-1-1.81-6.47-5.24-12.1-9.1-17.5a3.41,3.41,0,0,0-4-1.36,20,20,0,0,0-2.49.9,25.45,25.45,0,0,0-4.67,2.62,50.45,50.45,0,0,1-2.87-5.07c2.79-1.12,4.45-3,4.41-6.05a6.18,6.18,0,0,0-4.38-6.24,2.6,2.6,0,0,1,.42-.54,6.57,6.57,0,0,0,2.43-6.92c-.2-1.14-.55-2.25-.8-3.38a13.43,13.43,0,0,1-.68-3.23c.64-.06,1.25-.09,1.85-.16a30.41,30.41,0,0,0,3-.38c2.26-.46,3.05-2.37,1.82-4.34a7.28,7.28,0,0,0-1-1.26,8.81,8.81,0,0,0-1.39-1.2,7.2,7.2,0,0,1-3-4.9,76.86,76.86,0,0,1-1.11-10.57c-.32-4.63-.71-9.25-1.28-13.85a10,10,0,0,0-.79-3,5,5,0,0,0-2.92-2.7,7.25,7.25,0,0,0-3-.37c-3.54.17-7.09.3-10.62.6-6.59.55-13.17,1.24-19.76,1.83a164.48,164.48,0,0,0-17.81,2.52,4.75,4.75,0,0,0-3.79,4.26,9.12,9.12,0,0,0,.41,3.44l2.76,9c.44,1.43.87,2.87,1.28,4.31a17.93,17.93,0,0,1-1.09,12.95c-.35.74-.66,1.49-.95,2.26a5.61,5.61,0,0,0-.42,2.4,2.11,2.11,0,0,0,2.52,2.26c1,0,2-.19,3.06-.27.68-.05.83.09.84.8a55.58,55.58,0,0,0,.75,7.73c.6,3.77,1.44,5,4.68,6.84-.24.64-.91.77-1.36,1.17-1.47,1.32-2.6,2.82-2.49,4.92s.92,4,3.2,4.73c.68.23.7.39.36,1-2.32,4.48-4.6,9-7,13.42A163.35,163.35,0,0,0,219.22,446c-1.67,4.34-3.1,8.74-2.9,13.42a1.81,1.81,0,0,1-1.25.25c-4.71.09-9.42.19-14.12.25-4.37.06-8.73.08-13.1.11-.82,0-1-.12-1.09-.89-.33-1.88-.65-3.76-.94-5.65-.67-4.52-1.27-9-1.77-13.58a184.66,184.66,0,0,1-1.33-20.21c0-7.91.1-15.82.19-23.74q.21-17.08,0-34.18c0-.68,0-1.36-.08-2-.25-5.46-.3-10.91-.11-16.37q.24-6.86.5-13.7a2.65,2.65,0,0,0-.2-1.6.72.72,0,0,0-.49-.26.64.64,0,0,0-.5.25,1.84,1.84,0,0,0-.21.77c-.14,1.9-.32,3.81-.38,5.71-.16,5.66-.31,11.32-.38,17,0,2.79.18,5.59.24,8.38.31,16,.11,32.07-.05,48.1-.08,9.34-.17,18.68.86,28,.71,6.44,1.38,12.88,2.47,19.27.26,1.53.49,3.06.76,4.75-11.89.26-23.67.42-35.5.45-.18-.69-.33-1.28-.5-1.86a23.26,23.26,0,0,0-3.11-7.06,66.79,66.79,0,0,0-6.64-8.27,51.67,51.67,0,0,1-4-4.58,6.38,6.38,0,0,1-1.38-3.77c0-.67,0-1.35-.07-2a115.33,115.33,0,0,1,.23-14.28,3.45,3.45,0,0,1,.17-.67l1.16-.17a9.56,9.56,0,0,0,3.09-1c1.67-.92,1.77-2.49.19-3.53a7.56,7.56,0,0,0-2.22-1,23,23,0,0,0-8.09-.78,18.49,18.49,0,0,0-3.62.6,5.58,5.58,0,0,0-2,1.05,1.62,1.62,0,0,0-.1,2.51,3.56,3.56,0,0,0,1.5,1c.78.23,1.53.53,2.31.76,1.18.33,1.17.31,1.17,1.47a118.13,118.13,0,0,1-1.38,16.27,15.57,15.57,0,0,1-4.47,9c-1.1,1.11-2.22,2.21-3.29,3.35a22.93,22.93,0,0,0-5.87,10.58c-.14.59-.28,1.19-.41,1.79-.23,1.12-.26,1.15-1.49,1.19-.34,0-.68,0-1,0l-10.23.14c-2.46,0-2.46,0-3.87-1.89a1,1,0,0,1-.1-.17C94,456.45,92,453.82,90,451.24a9.36,9.36,0,0,1-2.13-6c.06-2.92,0-5.85.17-8.77.32-4.83.8-9.64,1.21-14.46.06-.66.18-.77.91-.8,1.09-.05,2.18-.06,3.27-.1a6.91,6.91,0,0,0,1.21-.16.84.84,0,0,0,.67-.7A7.86,7.86,0,0,0,95.2,417a1.41,1.41,0,0,0-1.3-1.13,5.7,5.7,0,0,0-.82,0c-4,0-7.91,0-11.86.1a28.83,28.83,0,0,0-3.45.36,1.36,1.36,0,0,0-1.22,1.4,21.12,21.12,0,0,0,0,2.25,1.19,1.19,0,0,0,1.15,1.21c1,.13,2,.19,3,.29.72.07.82.14.69.88a27.51,27.51,0,0,0-.19,7.74,4.14,4.14,0,0,1,0,.61c-.22,5.11-.44,10.2-1,15.29a10.9,10.9,0,0,1-4,7.52c-3.14,2.63-6.34,5.15-9.59,7.63a2.92,2.92,0,0,1-1.87.61L40.5,462q-14.54.19-29.06.38c-5,.06-10.1.06-15.14.09v1.64a2.37,2.37,0,0,1,1.39-.19q6.24-.1,12.48-.17l18.22-.22,34.38-.46c.25,0,.58-.13.73.16s-.13.47-.33.64c-.45.41-.92.8-1.34,1.25a9,9,0,0,0-2.25,3.61,4.12,4.12,0,0,0,1.32,4.61,6.68,6.68,0,0,0,2.25,1.37,40.2,40.2,0,0,0,4.1,1.24c3.67.76,7.38,1.3,11.1,1.72,2.23.24,4.48.36,6.72.54a83,83,0,0,0,11,.15,13.73,13.73,0,0,0,2.22-.26,9.9,9.9,0,0,0,6-3.6,4.23,4.23,0,0,0,.38-4.95,8.44,8.44,0,0,0-1.45-2c-1.23-1.28-2.44-2.56-3.66-3.84-.1-.1-.24-.16-.31-.27a1,1,0,0,1-.2-.55c0-.33.32-.37.61-.37l11-.09a2,2,0,0,1,1.4.23,18.46,18.46,0,0,0,1.83,7.46,19.89,19.89,0,0,0,11,9.49c5.19,2,10.44,1.58,15.64,0a11.09,11.09,0,0,0,5-3.13,16,16,0,0,0,3.81-7.79,24.4,24.4,0,0,0,.52-6.09c0-.42.22-.61.6-.66a7.48,7.48,0,0,1,.82,0c4.23-.08,8.46-.19,12.69-.24l46.87-.55,5.11,0a.9.9,0,0,1,1,.62,6.59,6.59,0,0,0,1.61,2.33,11.14,11.14,0,0,0,5.3,2.93,30.36,30.36,0,0,0,6.29.68c6,.19,12,.2,18-.06,7.43-.31,14.85-.74,22.28-1.15,2.31-.12,4.63-.31,6.93-.51,3.88-.34,7.74-.73,11.61-1.08a48.58,48.58,0,0,0,9.05-1.58,7.19,7.19,0,0,0,4.11-2.51,1.88,1.88,0,0,1,1.7-.84c3.68,0,7.37-.11,11-.16l31.11-.4c.34,0,.68,0,1,0a.88.88,0,0,1,.9.67c.2.64.44,1.28.7,1.9a12.14,12.14,0,0,0,6.45,6.77,24,24,0,0,0,11.19,1.72,20.21,20.21,0,0,0,11.56-4.68,16.64,16.64,0,0,0,4.92-5.88,1.64,1.64,0,0,1,1.75-1.05c1.64.06,3.28,0,4.91,0h2.68c-.14.47-.23.79-.33,1.1a4.21,4.21,0,0,0,.95,4.35,10,10,0,0,0,7.09,3.53A79.31,79.31,0,0,0,408,468a135.8,135.8,0,0,0,20.91-2.29,19.25,19.25,0,0,0,5.8-1.89c1.86-1,3.06-2.45,2.75-4.75a3.62,3.62,0,0,1,0-.57,1.19,1.19,0,0,1,.41-.16l82.87-1.15v-1.23C520.1,455.91,519.49,455.83,518.88,455.84ZM80,419.92l-.4,0c-1.65-.05-1.58-.41-1.59-1.73v-.58a17,17,0,0,1,3.75-.34c2.65,0,5.3,0,7.95,0,1.09,0,2.17-.05,3.26-.06.63,0,.81.17.92.84a7.4,7.4,0,0,1,.08.81c0,.53-.13.74-.69.76C88.88,419.71,84.47,420.11,80,419.92Zm-4,35.6a30.76,30.76,0,0,0,3.11-2.94,10,10,0,0,0,1.93-3.53,33.73,33.73,0,0,0,1-7.06c.26-3.12.37-6.25.48-9.38.06-1.71,0-3.41,0-5.11,0-1.36.05-2.72.11-4.08A3.2,3.2,0,0,1,83,422a.88.88,0,0,1,.76-.58c1.08-.07,2.17-.16,3.26-.22.61,0,.85.24.81.87-.11,1.49-.22,3-.36,4.47q-.44,5-.9,10a75.49,75.49,0,0,0-.14,9.39A10.78,10.78,0,0,0,89,452.28c1.16,1.49,2.29,3,3.74,4.93-6.53-.31-12.55.47-18.6.36,0,0-.07-.1-.16-.26C74.66,456.72,75.38,456.13,76.07,455.52Zm25.84,12.7a8.43,8.43,0,0,1,1.67,2.29,2.7,2.7,0,0,1-.31,3.06,8.3,8.3,0,0,1-5.89,3.26A51.35,51.35,0,0,1,88,477c-2.79-.2-5.59-.26-8.36-.57a100,100,0,0,1-12.88-2,21.06,21.06,0,0,1-3.29-1.07c-2.8-1.2-3.58-3.1-1.58-6a14.35,14.35,0,0,1,3.17-3.15c2-1.6,4.11-3.13,6.13-4.74a2.18,2.18,0,0,1,1.48-.44c4.7-.11,9.4,0,14.08-.43,1.42-.12,2.86,0,4.29,0h2.48A72.67,72.67,0,0,0,101.91,468.22Zm24.2-52.42a4.35,4.35,0,0,1-2-1c-.2-.21-.28-.46,0-.68a4.93,4.93,0,0,1,1.84-.82,23,23,0,0,1,10.83.53,6.51,6.51,0,0,1,1.12.48.87.87,0,0,1,.51.81c0,.3-.3.42-.53.54a11.13,11.13,0,0,1-3.54.86A21.43,21.43,0,0,1,126.11,415.8Zm-11,39.88a22.11,22.11,0,0,1,4.48-7c1.08-1.14,2.19-2.25,3.29-3.35a17.72,17.72,0,0,0,5.15-10.62c.44-3.58.82-7.17,1.12-10.76.15-1.69,0-3.4.06-5.1,0-.8.19-1,1-.89s1.94-.32,2.5.39,0,1.57,0,2.38c-.18,4.7-.13,9.39,0,14.09a7.72,7.72,0,0,0,1.79,4.89c1.61,1.91,3.33,3.74,5,5.61a53.58,53.58,0,0,1,6.39,8.45,5.85,5.85,0,0,1,.84,2.05,3.74,3.74,0,0,1-2,.42c-5.71.29-11.42.63-17.14.85-3.94.14-7.89.18-11.83.45a7.5,7.5,0,0,1-1-.06A2.44,2.44,0,0,1,115.14,455.68ZM148.52,465a20.74,20.74,0,0,1-1.89,7.47,10.29,10.29,0,0,1-6.08,5.68c-5.68,1.91-11.35,2.16-16.85-.59a18.55,18.55,0,0,1-7.41-6.22,15.5,15.5,0,0,1-2.57-10.48c0-.27.06-.54.11-.81.21-1,.44-1.19,1.51-1.22,5.11-.16,10.22-.27,15.32-.47,3.48-.13,7-.36,10.42-.55l3.46-.24v-.05c.75,0,1.5,0,2.25,0a.81.81,0,0,1,.89.64A16.61,16.61,0,0,1,148.52,465Zm136.91-50.07a18.49,18.49,0,0,1,3.72-1.65,10.73,10.73,0,0,1,1.59-.35,1.61,1.61,0,0,1,1.6.68c.12.17.26.32.37.49,3.53,5,6.75,10.23,8.47,16.22.64,2.24.58,2.63-1.36,3.88a17.17,17.17,0,0,1-5.4,2.37,1.35,1.35,0,0,1-1.47-1.29.78.78,0,0,1,.32-.49c.82-.49,1.66-.94,2.48-1.42a3,3,0,0,0,1.75-3.72,9.37,9.37,0,0,0-.56-1.75c-1.35-3.2-2.88-6.31-4.54-9.36a5.58,5.58,0,0,0-.83-1.16,2.66,2.66,0,0,0-3-.79,11.08,11.08,0,0,0-2.38,1.14l-1.53.94C282.87,416.16,283,416.28,285.43,414.94ZM292,433.65l-6.79-13.45A12.21,12.21,0,0,1,289,418a1.24,1.24,0,0,1,1.46.39,5.22,5.22,0,0,1,.7,1c1.6,2.92,3,5.91,4.36,9a5.25,5.25,0,0,1,.53,2.16,1.37,1.37,0,0,1-.74,1.33C294.25,432.4,293.25,433,292,433.65Zm-65.14-48.59a10.13,10.13,0,0,1-1.23.06.77.77,0,0,1-.83-.92,10.4,10.4,0,0,1,.48-2c.27-.76.64-1.5,1-2.24a19,19,0,0,0,1.12-13c-.51-1.91-1.1-3.79-1.68-5.68-.77-2.54-1.57-5.08-2.33-7.62a16.48,16.48,0,0,1-.6-2.59c-.25-2,.62-3.21,2.63-3.69,3-.71,6-1.17,9.06-1.58,5.88-.8,11.8-1.28,17.71-1.75,3.26-.26,6.51-.69,9.77-1,2.17-.2,4.35-.3,6.53-.45v0c1.3-.05,2.59-.12,3.89-.16a19.83,19.83,0,0,1,2,0,3.56,3.56,0,0,1,3.69,2.93,20.43,20.43,0,0,1,.59,3.41c.61,5.56,1,11.14,1.37,16.72a39,39,0,0,0,1.11,7.27,7.08,7.08,0,0,0,2.57,4.06c.49.37,1,.77,1.42,1.17a8.85,8.85,0,0,1,1,1c1.12,1.38.85,2.15-.89,2.51a11.3,11.3,0,0,1-1.42.21c-7,.5-14,1-21,1.34-5.93.28-11.85.7-17.77,1q-5,.28-10,.49C232.33,384.75,229.6,384.77,226.88,385.06Zm5.64,11.87c-.27-1-.46-2-.64-3a36.39,36.39,0,0,1-.68-6.5c0-1,.06-1.06,1-1.11,1.49-.09,3-.19,4.49-.24,7.5-.24,15-.82,22.46-1.24,2.66-.15,5.31-.26,8-.41l11.23-.65c.94-.05,1,0,1.27.92q.72,2.66,1.4,5.33a6.51,6.51,0,0,1,0,3,4.43,4.43,0,0,1-3.38,3.47c-1.39.34-2.81.57-4.22.77q-3.24.46-6.49.81c-5.29.57-10.57,1.14-15.86,1.65-3,.29-6,.48-9.46.75l-3.4.1a7.18,7.18,0,0,1-2.21-.33A4.65,4.65,0,0,1,232.52,396.93Zm.78,9a5.27,5.27,0,0,1,1.56-1.88,8.77,8.77,0,0,1,4.85-1.87c5.38-.22,10.75-.7,16.1-1.34,4.46-.53,8.95-.89,13.42-1.37,2.1-.23,4.2-.49,6.28-.86s3.74.46,5.39,1.44a3.48,3.48,0,0,1,1.27,1.81,4.7,4.7,0,0,1-2.76,6.5,18,18,0,0,1-4.4.87c-4.33.52-8.67,1-13,1.4-5.57.51-11.15.83-16.72.8a57.57,57.57,0,0,1-8.41,0l-.61,0A3.54,3.54,0,0,1,233.3,405.89Zm-11.58,38c1.67-4.17,3.46-8.3,5.53-12.29,2.73-5.26,5.52-10.48,8.09-15.83.44-.91,1-1.78,1.49-2.67a10.39,10.39,0,0,1,3-.08c6.89,0,13.77-.22,20.64-.77,5.23-.42,10.44-1,15.64-1.71.34,0,.69,0,1-.1a1.11,1.11,0,0,1,1.32.65c1.59,2.93,3.31,5.8,4.83,8.77,3.6,7,7.11,14.11,10.67,21.16a2,2,0,0,1,.35,1.22c-1.94.33-3.86.71-5.79,1-4.18.59-8.37,1.13-12.56,1.7a11,11,0,0,0-1.79.39.87.87,0,0,0-.26,1.59,13.65,13.65,0,0,0,1.22.74c.29.17.72.31.7.66s-.5.58-.88.69a26.36,26.36,0,0,1-2.55.74,106.87,106.87,0,0,1-12.35,1.69c-8,.68-16.07.79-24.12.73-.95,0-1.9-.07-2.86-.15a7.35,7.35,0,0,1-1.15-.25c0-.55.38-.75.65-1a15.86,15.86,0,0,0,1.25-1.35,1.88,1.88,0,0,0-.53-2.83,9.21,9.21,0,0,0-4.27-1.26,43.29,43.29,0,0,0-6.34-.17c-.39,0-.8.18-1.17-.06C221.33,444.65,221.57,444.3,221.72,443.92Zm79.8,14.85a3.82,3.82,0,0,1-1.94,2.27,10.87,10.87,0,0,1-2.87,1,56.21,56.21,0,0,1-7.86,1.27c-3.25.31-6.49.74-9.76.93-2.59.15-5.16.43-7.75.6-4.42.29-8.84.58-13.27.8-6.19.31-12.39.58-18.6.55l-8.59-.05a42.31,42.31,0,0,1-5.5-.43,10.4,10.4,0,0,1-4.53-1.74,6.49,6.49,0,0,1-3-5.91,25,25,0,0,1,.42-3.66,48.34,48.34,0,0,1,2-6.85,1.3,1.3,0,0,1,1.33-1A45.81,45.81,0,0,1,230,447a3.92,3.92,0,0,1,.59.15c.69.24,1.68.17,2,.91s-.71,1.19-1.15,1.74c-.3.37-.67.69-.94,1.08a1.44,1.44,0,0,0,.56,2.23,3.44,3.44,0,0,0,1.56.43c1.43.08,2.86.21,4.29.22,7.84,0,15.68-.05,23.5-.74a89.9,89.9,0,0,0,13.34-1.93,11.55,11.55,0,0,0,2.5-.86c1.61-.83,1.82-1.66.82-3.24a1.74,1.74,0,0,1-.16-.4,29.11,29.11,0,0,1,5.24-.8c3.18-.4,6.33-.92,9.49-1.43,1-.17,2-.28,3-.48a1.14,1.14,0,0,1,1.33.64,47.43,47.43,0,0,1,3.26,5.66c.7,1.48,1.37,3,2.11,4.42A5.57,5.57,0,0,1,301.52,458.77Zm58.25-53.22a6.14,6.14,0,0,1-1.26-.62c-.15-.09-.17-.31-.05-.53a1.8,1.8,0,0,1,1.13-.8,19.37,19.37,0,0,1,8.4-1.11,10.6,10.6,0,0,1,4,.75c.34.18.86.25.9.72s-.52.77-.91,1a14.24,14.24,0,0,1-4.11,1.07c-1,.11-2,.15-2.88.21A17.8,17.8,0,0,1,359.77,405.55ZM351,443.31a55.24,55.24,0,0,1,6.38-8.45c1.57-1.77,3.27-3.43,4.75-5.28a8.56,8.56,0,0,0,2-5.22,124.89,124.89,0,0,0-.12-15.11c0-.46,0-.93,0-1.37.44-.39.94-.24,1.4-.25,2.33-.06,2.22-.53,2.17,2.07a70.65,70.65,0,0,0,.69,10.17,64,64,0,0,0,.88,6.47,17.28,17.28,0,0,0,4.38,8.15c1.22,1.28,2.48,2.52,3.71,3.8a22.1,22.1,0,0,1,4.46,7,10.65,10.65,0,0,1,.41,1.36c.06.23-.15.35-.34.42a1.39,1.39,0,0,1-.41,0c-5.85-.21-11.7-.4-17.55-.66-4.21-.18-8.43-.47-12.64-.72-.33,0-.65-.06-1-.1A4.32,4.32,0,0,1,351,443.31ZM377.81,464a19.51,19.51,0,0,1-10.74,5,24.91,24.91,0,0,1-8.12-.48,19,19,0,0,1-2.35-.64,10.71,10.71,0,0,1-6.51-6.07,20.29,20.29,0,0,1-1.3-12.76,3.86,3.86,0,0,1,.69-1.87c.47-.47,1.28,0,1.94,0L368,448l12.75.36c2.07.06,2.25.24,2.4,2.35A15.37,15.37,0,0,1,377.81,464Zm26.92-54.75c-.41,0-.82,0-1.22-.05a.61.61,0,0,1-.66-.62c0-.13,0-.27,0-.41,0-1.28.12-1.37,1.43-1.37l10.82,0c.61,0,1.22,0,1.83,0,1.8.15,2.11-.09,1.71,2.35a25.78,25.78,0,0,1-6.36.32C409.76,409.33,407.25,409.29,404.73,409.25Zm-.15,36.92c1.05-1.41,2.08-2.85,3.18-4.23a11.83,11.83,0,0,0,2.67-7.53,141,141,0,0,0-.92-16.69c-.23-2-.36-4.07-.51-6.1,0-.53.2-.79.69-.78,1.09,0,2.17.09,3.26.12a.91.91,0,0,1,.89.7,7.51,7.51,0,0,1,.41,2.61c0,1.84-.05,3.68-.07,5.52,0,.27,0,.54,0,1a148.85,148.85,0,0,0,.95,14.88,19.12,19.12,0,0,0,.81,3.58,8.76,8.76,0,0,0,2.61,3.82c1.22,1.08,2.47,2.14,3.7,3.21a3.54,3.54,0,0,1,.45.41.65.65,0,0,1,.05.37c0,.16-.12.21-.29.19-.61,0-1.22-.1-1.84-.11-5.17-.11-10.33-.62-15.5-.42h-.21A.38.38,0,0,1,404.58,446.17Zm29.05,16.6a18.32,18.32,0,0,1-4.27,1.36q-3.42.63-6.85,1.16A116.61,116.61,0,0,1,406,466.61c-1.91,0-3.82,0-5.73-.09a8.91,8.91,0,0,1-6.45-3,2.89,2.89,0,0,1-.31-3.92,12.7,12.7,0,0,1,1.8-2.21,64.34,64.34,0,0,0,7.35-8.46,1.66,1.66,0,0,1,1.52-.75c3.34-.08,6.67,0,11.62.28,1.72,0,5.06.1,8.39.14a1.94,1.94,0,0,1,1.32.36c2.39,1.9,4.83,3.75,7.23,5.65a10.8,10.8,0,0,1,2.11,2.21c.08.11.19.2.26.31C436.73,459.4,436.17,461.6,433.63,462.77Z"/><path d="M330.32,254.94a8.29,8.29,0,0,0,0-3.06,4.35,4.35,0,0,0-5.61-3.58,7.76,7.76,0,0,0-5,3.92,14.61,14.61,0,0,0-1.62,6.08,32.55,32.55,0,0,0,.22,9c.05.27.08.54.11.81.11,1.13,0,1.24-1.05,1-1.32-.34-2.63-.71-3.94-1.08-2-.55-3.93-1.13-5.91-1.63a1.43,1.43,0,0,1-1.19-1.2c-.32-1.54-.65-3.07-1-4.6-1.25-5.51-2.55-11-4.14-16.45a100.86,100.86,0,0,0-6.33-15.95c-3.1-6.3-6.46-12.47-9.86-18.61-1.68-3-3.6-5.95-5.47-8.88a11.74,11.74,0,0,1-1.72-4.53c-.79-4.78-1.89-9.49-3-14.21a2.67,2.67,0,0,1-.13-1.58,17.56,17.56,0,0,1,6.37,1.75l17.23,8.06c3,1.38,5.93,2.77,8.91,4.11a79.45,79.45,0,0,1,26.08,19.4A109.62,109.62,0,0,1,343.4,226a96.66,96.66,0,0,1,5.81,9.87c3.83,7.39,7.18,15,10.62,22.57,2.51,5.53,5,11.08,7.19,16.72a117.06,117.06,0,0,1,5.18,15.72,37.09,37.09,0,0,1,.53,15,42.61,42.61,0,0,1-.94,4.6,10.9,10.9,0,0,1-1.64,3.5,38.27,38.27,0,0,1-9.69,9.6,33.29,33.29,0,0,1-7.54,3.61,6.72,6.72,0,0,1-3.82.21,18,18,0,0,1-4.06-1.39c-3-1.49-6-3-8.92-4.56a2,2,0,0,1-.44-.39c.24-.41.61-.21.9-.23a10.12,10.12,0,0,1,1.23.05c.34,0,.68.07,1,.12a36.64,36.64,0,0,0,6.54.26,8.57,8.57,0,0,0,2.79-.57,2.46,2.46,0,0,0,.82-.58.65.65,0,0,0,.08-.55.71.71,0,0,0-.41-.39,1.45,1.45,0,0,0-.8,0,14.35,14.35,0,0,1-6.07.49c-3.27-.23-6.55-.28-9.8-.58-7.83-.73-13.69-5.46-15.19-13.17-.24-1.2-.48-2.41-.65-3.62A43.13,43.13,0,0,0,315,297a1.74,1.74,0,0,1-.08-1.19,1.55,1.55,0,0,1,1.17-.19c1.5.09,3,.22,4.49.3a1.14,1.14,0,0,1,1.18.9,37.51,37.51,0,0,0,2.9,6.31,14.69,14.69,0,0,0,4.61,5.39,10.28,10.28,0,0,0,4.34,1.68,27.15,27.15,0,0,0,8.15,0,50.43,50.43,0,0,0,7.77-1.74c5.4-1.79,7.23-6.12,7.44-10.2a26.48,26.48,0,0,0-1.84-10.4,26,26,0,0,0-3.8-7.29,26.06,26.06,0,0,0,3.12-5c.62-.1.78.34,1,.62a25,25,0,0,1,4.64,6.94A41.85,41.85,0,0,1,363.2,292a30,30,0,0,1,.13,9.17,23.56,23.56,0,0,1-3,9.07,9.69,9.69,0,0,0-.7,1.69.58.58,0,0,0,.34.67.64.64,0,0,0,.91-.17c.3-.45.52-1,.79-1.43a26.72,26.72,0,0,0,3.42-11.67,27.16,27.16,0,0,0-1.7-12.24c-.5-1.27-1-2.53-1.55-3.79a25.32,25.32,0,0,0-5.27-8c-.38-.39-.72-.82-1.09-1.22a1.18,1.18,0,0,1-.32-1.12,4.67,4.67,0,0,0,0-2.23,5,5,0,0,0-4.73-3.56c-.59,0-1.19.09-1.93.15a14.27,14.27,0,0,0,.36-2.89,4.86,4.86,0,0,0-5.06-5,7.18,7.18,0,0,0-2,.29l-1.7.59c-.51-.39-.29-.91-.36-1.35a5.39,5.39,0,0,0-2-3.48c-2.32-1.81-4.45-1.75-7,.25C330,255.77,330.09,255.39,330.32,254.94Z" fill="#f38704"/><path d="M266.35,251.24h-6.41c-4.5,0-9,.29-13.48.64-1,.08-1.08.07-1.41-1a81.56,81.56,0,0,1-2-8.34,38.71,38.71,0,0,1-.72-10.57A31.83,31.83,0,0,1,245,220.9a6.11,6.11,0,0,1,1.89-2.34,48.74,48.74,0,0,0,12.14-14.21,19.63,19.63,0,0,0,1.86-4.31,57,57,0,0,0,2.56-12.79,34.87,34.87,0,0,0-.11-6.54c0-.33-.07-.67-.1-1-.12-1.63-.12-1.59,1.46-1.49a36.22,36.22,0,0,1,6.86,1,1.76,1.76,0,0,1,1.54,1.57c1.06,5.48,2.43,10.9,3.35,16.41.29,1.75.62,3.49.91,5.23a3.14,3.14,0,0,1,0,.81.56.56,0,0,1-.52.54,4.11,4.11,0,0,1-1.81-.17c-2.45-.58-4.9-1.19-7.35-1.78a5,5,0,0,0-2-.29.68.68,0,0,0-.62.7.6.6,0,0,0,.41.63c1.18.32,2.37.65,3.56.91a2.38,2.38,0,0,1,1.76,1.51c3.06,6.68,6.2,13.33,9.27,20a74.1,74.1,0,0,1,5,14,76.31,76.31,0,0,1,1.43,10.31c0,.21,0,.41,0,.62a.56.56,0,0,1-.64.6l-4.09-.07C276.76,250.71,271.73,251,266.35,251.24Z" fill="#f38704"/><path d="M243.6,251.91a5.91,5.91,0,0,1-2.39.49q-7.25.61-14.47,1.19c-.65,0-.85-.18-.56-.84a1.49,1.49,0,0,0-.39-2c-3.63-3.1-6.95-6.53-10.41-9.82l-1.33-1.27c-1.73-1.65-1.77-1.64-1.93-4a62.91,62.91,0,0,1,0-9.61,119.67,119.67,0,0,1,2.75-17.56c.37-1.52.78-3,1.2-4.54.25-.89.33-.92,1.31-.71.8.17,1.6.36,2.39.54.34.08.67.17,1,.22a.83.83,0,0,0,1-.55.73.73,0,0,0-.48-.81,10.8,10.8,0,0,0-1.56-.48c-2.85-.69-5.7-1.35-8.55-2a9.87,9.87,0,0,1-3-1.19,1.28,1.28,0,0,1-.58-1.9,7.5,7.5,0,0,1,.6-1.07,70.23,70.23,0,0,0,6.06-12c1.62-3.77,1.05-3.06,5.1-3.32a5.92,5.92,0,0,1,1,.08c1.72.18,1.79.17,1.87,2,.36,7.65,3.15,14.45,7.13,20.85a58.77,58.77,0,0,0,5.4,7.44,27.79,27.79,0,0,0,8.71,7,6,6,0,0,1,.7.4.55.55,0,0,1,.2.71c-.1.25-.24.49-.36.74a33.27,33.27,0,0,0-3.08,18.89,71.82,71.82,0,0,0,2.55,12.4A8.31,8.31,0,0,1,243.6,251.91Z" fill="#f38704"/><path d="M109.44,298.66c.51.39.33.83.32,1.19-.09,3.49.2,6.95.36,10.43a22.17,22.17,0,0,0,.44,3.44,8.77,8.77,0,0,0,2.84,4.86,13.57,13.57,0,0,0,6.28,3.24,24.37,24.37,0,0,0,15.55-1.8,12.27,12.27,0,0,0,2.94-1.83c.52-.44,1.11-.79,1.67-1.18a21.55,21.55,0,0,0,5.29-5.06,40.62,40.62,0,0,0,4.13-6.32.49.49,0,0,1,.82-.19l.82.61c3.74,2.73,7.37,5.62,11.28,8.12.88.56.94.72.68,1.67-1.8,6.43-4.76,12.15-9.93,16.58A60.34,60.34,0,0,1,141.59,340a80.7,80.7,0,0,1-7.82,3.54,31.78,31.78,0,0,1-11.35,2.33,21.61,21.61,0,0,1-5.26-.61,15.91,15.91,0,0,1-6.68-3.82,16.56,16.56,0,0,1-3.25-3.92,39.17,39.17,0,0,1-4.92-13.13,32.86,32.86,0,0,1,2.16-19.21,12.81,12.81,0,0,1,3-4.58C108.16,300,108.79,299.32,109.44,298.66Z" fill="#f38704"/><path d="M213.74,180.86a1.8,1.8,0,0,1-.29,1.42c-2.12,4.42-4,9-6.74,13.06a5.84,5.84,0,0,0-.66,1.26c-.43,1.26-.42,2.47.8,3.29.75.5.64,1,.36,1.73-1.41,3.62-2.74,7.27-4.18,10.87a103.13,103.13,0,0,0-4.94,14.86c-.54.28-.81-.13-1.13-.32-1.42-.82-2.81-1.68-4.23-2.49a13.25,13.25,0,0,0-1.5-.64,1.46,1.46,0,0,0-1.84.42l-2.65,3.12a8.55,8.55,0,0,1-1.46,1.65c-.54-.11-.56-.56-.7-.92a23.68,23.68,0,0,0-2.94-5.36A17.75,17.75,0,0,0,171,216.09l-1.2-.25-1.19-.28c-.1-.65.41-1,.67-1.43a10.77,10.77,0,0,0,1.3-2.77,6.49,6.49,0,0,0-.55-4.57c-.28-.53-.58-1-.94-1.7,1.11-1.05,2.14-2.14,3.28-3.1a131.8,131.8,0,0,1,23.11-16.09,47.18,47.18,0,0,1,11.84-4.41A20.57,20.57,0,0,1,213.74,180.86Z" fill="#f38704"/><path d="M155.49,241.53a7,7,0,0,0,3.64-4.39c.54-1.91-.23-3.61-1.19-5.25a15,15,0,0,0,1.51-.8,4.73,4.73,0,0,0,2.3-3.24,2.14,2.14,0,0,1,1.47-1.75c3.45-1.68,7.57.15,9.36,2.86a20.43,20.43,0,0,1,2.13,4.63,15.59,15.59,0,0,1,.49,6.08,1.6,1.6,0,0,1-.59,1L171.5,244c-3.76,3.87-7.17,8.05-10.59,12.21-2.26,2.73-4.46,5.51-6.63,8.31a5,5,0,0,1-2.45,1.71c-3.64,1.25-8.7-.59-10.75-2.89a7.26,7.26,0,0,1-1.91-4.21,11.33,11.33,0,0,1,.08-3.19,2,2,0,0,1,1.66.12,24.66,24.66,0,0,0,3,.75,3.84,3.84,0,0,0,3.94-1.61,12.88,12.88,0,0,0,1.46-2.68c.25-.56.45-1.14.68-1.71a.86.86,0,0,1,1-.58c2.11.17,3.47-1,4.48-2.67a5,5,0,0,0,.43-5.24C155.71,242.09,155.65,241.9,155.49,241.53Z" fill="#f38704"/><path d="M330.32,254.94c.11.27,0,.65.41.78a1.49,1.49,0,0,1-.29.47c-.25.2-.48.08-.5-.24A1.09,1.09,0,0,1,330.32,254.94Z" fill="#5e2a01"/><path d="M133.47,267.62H133c-.28-.13-.44-.32-.16-.57,0-.05.34.09.48.2S133.43,267.5,133.47,267.62Z" fill="#546b6b"/><path d="M419.82,362a5.45,5.45,0,0,0-6.65-2.54,6.45,6.45,0,0,0-1.09.53,1.17,1.17,0,0,1-1.16.16,5.16,5.16,0,0,0-2.79-.38,1.18,1.18,0,0,1-1.36-.92,6,6,0,0,0-3-3.21,6.2,6.2,0,0,0-7.18,10,6.46,6.46,0,0,0,4.62,1.78,1.87,1.87,0,0,1,2.06,1.07,5.91,5.91,0,0,0,6.2,3,2.75,2.75,0,0,1,2.06.47,5,5,0,0,0,5.06.4c2.83-1.31,4-3.72,4.2-6.68A7.06,7.06,0,0,0,419.82,362Zm-17.47,3.84a5.14,5.14,0,0,1-5-1.46,4.66,4.66,0,0,1,3.17-8,5.18,5.18,0,0,1,4.92,3c.32.7.28.91-.3,1.38C403.18,362.31,402.82,363,402.35,365.81Zm1.64-1.15c0-.36,0-.72.35-1a1,1,0,0,1,.46-.72h0a7,7,0,0,1,.45-.62.39.39,0,0,1,.34-.07.46.46,0,0,1,.14.33,1,1,0,0,1-.41.85l-.45.77h0l-.36.47h0c-.08.19-.21.35-.43.31S403.75,364.85,404,364.66Zm4.69,1a9.64,9.64,0,0,0,.74,4.17c-2.56.52-4.05-.32-5.33-3,.24-.21.49-.44.75-.64a6.21,6.21,0,0,0,2.45-4.1c.11-.74.49-1.07,1.2-1a3.19,3.19,0,0,1,1.68.46A10.15,10.15,0,0,0,408.68,365.66Zm2.91,3.48a.57.57,0,0,1-.95-.29,6.26,6.26,0,0,1,.94-6.59,3.87,3.87,0,0,1,1.78,3.4A4.28,4.28,0,0,1,411.59,369.14Zm4.88,1.67a3.81,3.81,0,0,1-4.18-.12c3-3.33,3.36-5.66.7-9.55a3.8,3.8,0,0,1,3.81-.13,4.39,4.39,0,0,1,2.35,3.13A6,6,0,0,1,416.47,370.81Z" fill="#020303"/><path d="M102,369.53a6.3,6.3,0,0,0-9.18-3.37A6.16,6.16,0,0,0,90,369.47a.91.91,0,0,1-1.08.7,5.09,5.09,0,0,0-3,.41,1,1,0,0,1-1-.06,9.86,9.86,0,0,0-1.48-.67,5.08,5.08,0,0,0-5.56,1.41c-3,2.95-2.37,9.29,2.14,11.44a4.94,4.94,0,0,0,4.88-.11,4.47,4.47,0,0,1,2.86-.67,6,6,0,0,0,5.93-3.2c.17-.29.3-.59.46-.91.59,0,1.12,0,1.66,0a5.78,5.78,0,0,0,3.29-.91A6.37,6.37,0,0,0,102,369.53ZM84.18,381.39a3.71,3.71,0,0,1-3.53,0A6,6,0,0,1,79,372.19a3.58,3.58,0,0,1,2.34-1.1,3,3,0,0,1,2.47.53c0,.5-.41.74-.64,1.06A5.77,5.77,0,0,0,83.6,380c.22.25.51.46.72.72A.4.4,0,0,1,84.18,381.39Zm1.63-1.6c-2.63-1.6-3.12-4.5-1.16-6.65.35-.38.67-.36,1,.05a5.84,5.84,0,0,1,1.12,3.4A4.6,4.6,0,0,1,85.81,379.79Zm6.78-2.05a4.12,4.12,0,0,1-2,2.19,3.87,3.87,0,0,1-3.11.48,1.87,1.87,0,0,1,0-.45,7.91,7.91,0,0,0-.58-7.43c-.26-.43-.06-.79.44-.86a6.89,6.89,0,0,1,1-.09c.93,0,1.09.12,1.25,1.16a5.5,5.5,0,0,0,1.93,3.49c.3.27.64.5.94.78A.58.58,0,0,1,92.59,377.74Zm.12-2.5a.41.41,0,0,1-.36-.09A3.38,3.38,0,0,1,91,372.5a3.32,3.32,0,0,1,1.83,2.42A.39.39,0,0,1,92.71,375.24Zm2.6,1.16c-.48,0-.86-.18-.94-.82a5.88,5.88,0,0,0-2.8-4.51.75.75,0,0,1-.33-.88,5.17,5.17,0,0,1,5.41-3.44,4.74,4.74,0,0,1,4.25,4.49,1.34,1.34,0,0,1,0,.2A5.17,5.17,0,0,1,95.31,376.4Z" fill="#020303"/><path d="M102.66,383.36a8.7,8.7,0,0,0-9.73.89,6.34,6.34,0,0,0-2.57,4.46,11.25,11.25,0,0,0,.47,3.38,4.66,4.66,0,0,0,1.69,2.24A8.6,8.6,0,0,0,105,392.15,6.2,6.2,0,0,0,102.66,383.36Zm1.06,8.1a7.24,7.24,0,0,1-10,2,4.68,4.68,0,0,1-1.14-6.65c1.47-2.12,3.57-3,6.7-3a5.72,5.72,0,0,1,3.53,1.45A4.71,4.71,0,0,1,103.72,391.46Z" fill="#050505"/><path d="M406.07,376.56a6.78,6.78,0,0,0-.85-1.41,8.42,8.42,0,0,0-9.32-3c-5.34,1.74-6.63,7.3-2.92,11a8.43,8.43,0,0,0,8.85,2.09,6.22,6.22,0,0,0,4.27-3.76,4,4,0,0,0,.23-2.53A4.87,4.87,0,0,0,406.07,376.56Zm-4.15,7.16a6.72,6.72,0,0,1-2.79.56,7.43,7.43,0,0,1-5.79-2.92,4.84,4.84,0,0,1,1.89-7.37,7.47,7.47,0,0,1,8.82,2C406.19,378.77,405.22,382.26,401.92,383.72Z" fill="#050505"/><path d="M420.68,345.11a7.36,7.36,0,0,0-7.68-6.62,5.93,5.93,0,0,0-5.56,6.32,7.34,7.34,0,0,0,7.21,6.49A5.76,5.76,0,0,0,420.68,345.11Zm-6.11,4.76a5.62,5.62,0,0,1-5.24-3.59c-1.38-3.11.68-6.46,3.39-6.31,3.26.12,5,1.29,6,3.42A4.38,4.38,0,0,1,414.57,349.87Z" fill="#060505"/><path d="M84.33,349A7.14,7.14,0,0,0,77,352.77c-2.54,4.72.83,9,5.12,9a7.39,7.39,0,0,0,7.24-6.44A5.81,5.81,0,0,0,84.33,349Zm3,8.11a5.63,5.63,0,0,1-5.5,3.15c-3.39-.14-5.14-3.37-3.8-6.41a6,6,0,0,1,5.32-3.48A4.42,4.42,0,0,1,87.35,357.13Z" fill="#050505"/><path d="M89.72,389.1a3.25,3.25,0,0,0-.9-1.57c-2.37-2.59-5.73-2.67-8-.11a5.4,5.4,0,0,0-.87,5.94,5.31,5.31,0,0,0,6.62,3.26,5.09,5.09,0,0,0,3.51-4.1A15.14,15.14,0,0,0,89.72,389.1Zm-1,3.19a3.73,3.73,0,0,1-4.13,3.11A4.23,4.23,0,0,1,81,391.1c0-2.86,2.39-4.77,5.1-3.78A4.3,4.3,0,0,1,88.68,392.29Z" fill="#060606"/><path d="M417.08,379a5.07,5.07,0,0,0-6.74-3.53,5,5,0,0,0-3.13,3,4.61,4.61,0,0,0-.37,3.85,3.82,3.82,0,0,0,.78,1.85,5.09,5.09,0,0,0,6.48,1.74A5.83,5.83,0,0,0,417.08,379Zm-1.36,2.9a4.2,4.2,0,0,1-3.46,3.1,3.72,3.72,0,0,1-3.6-1.85,4.09,4.09,0,0,1-.58-2.2,4.41,4.41,0,0,1,2.91-4.17,3.32,3.32,0,0,1,3.42.68A4.06,4.06,0,0,1,415.72,381.9Z" fill="#050505"/><path d="M255.84,419.92a10.35,10.35,0,0,0-4.92,1.44,2.56,2.56,0,0,0-1.63,2.59.5.5,0,0,1-.09.38.89.89,0,0,1-.48.33.73.73,0,0,1-.53-.24,1.48,1.48,0,0,1-.31-1.15,3.68,3.68,0,0,1,1.78-2.85,10.79,10.79,0,0,1,9.73-1.5,10.13,10.13,0,0,1,6,5,6.57,6.57,0,0,1-2.32,9.08,15.35,15.35,0,0,1-3.95,1.64c-.65.2-1.32.36-1.94.62a1.92,1.92,0,0,0-1.31,1.89,21.2,21.2,0,0,0,.12,2.25c.18,1.41.42,2.82.62,4.24a2,2,0,0,1,0,.8.79.79,0,0,1-.38.43.55.55,0,0,1-.73-.13,2,2,0,0,1-.42-.91c-.29-2-.63-4.05-.76-6.08-.14-2.24.73-3.41,2.85-4.17.64-.24,1.31-.37,2-.57a13.34,13.34,0,0,0,3.35-1.47,4.94,4.94,0,0,0,1.85-6.29,8.28,8.28,0,0,0-3.62-4A9.71,9.71,0,0,0,255.84,419.92Z" fill="#040303"/><path d="M256.51,449.61a1.52,1.52,0,0,1-1.45-1.63,1.3,1.3,0,0,1,1.32-1.46,1.62,1.62,0,0,1,1.73,1.59A1.55,1.55,0,0,1,256.51,449.61Z" fill="#140d0d"/><path d="M240.64,173.19a21.45,21.45,0,0,1-11.47-3c-.77-.45-1-1-.76-1.43s.77-.38,1.48,0a20.42,20.42,0,0,0,6.23,2.46,17.23,17.23,0,0,0,8.5-.22,14.48,14.48,0,0,0,6.57-3.95c.38-.39.75-.79,1.15-1.16a.58.58,0,0,1,.75,0,.75.75,0,0,1,.3.72,2.06,2.06,0,0,1-.63,1,16.41,16.41,0,0,1-8.06,5A17.22,17.22,0,0,1,240.64,173.19Z" fill="#060404"/><path d="M221,117a12.92,12.92,0,0,1,7.15,2c.67.4.85.9.54,1.3s-.66.4-1.27,0a13.1,13.1,0,0,0-4.95-1.75,12.63,12.63,0,0,0-10.14,3.29,16.72,16.72,0,0,0-3.09,3.77c-.51.81-1,1-1.43.71s-.36-.73.08-1.46a15.61,15.61,0,0,1,10.28-7.7,8.38,8.38,0,0,1,1.2-.21C219.88,117,220.42,117,221,117Z" fill="#070505"/><path d="M256.77,117a12.13,12.13,0,0,0-6.43,2.3,15.14,15.14,0,0,1-1.34.92.67.67,0,0,1-.91-.2.78.78,0,0,1,.08-.94,4.73,4.73,0,0,1,.92-.81,13.64,13.64,0,0,1,13.31-1.93A15.78,15.78,0,0,1,267,119a8.18,8.18,0,0,1,.75.69c.28.32.5.66.16,1.08a.76.76,0,0,1-1.09.11c-.44-.32-.84-.69-1.27-1A13.81,13.81,0,0,0,256.77,117Z" fill="#070505"/><path d="M241.65,157.48a6.53,6.53,0,0,1-2.24-.39,4.57,4.57,0,0,1-3-2.85.63.63,0,0,1,.22-.73.68.68,0,0,1,.92.07,4.6,4.6,0,0,1,.47.66,3.47,3.47,0,0,0,3.09,1.62c.88,0,1.76,0,2.63,0a.57.57,0,0,1,.58.47.7.7,0,0,1-.36.85A5.64,5.64,0,0,1,241.65,157.48Z" fill="#120f0f"/><path d="M224.94,133.49a4.46,4.46,0,0,0-.68-.76c-2-1.83-4.48-1.38-5.74,1.06a7.22,7.22,0,0,0-.81,3.47,10.64,10.64,0,0,0,2.13,6.94,3.65,3.65,0,0,0,6.81-1.24A10.56,10.56,0,0,0,224.94,133.49Zm-2.07,7a.92.92,0,0,1-1.47.45,2.83,2.83,0,0,1-1.09-1.42,7.05,7.05,0,0,1-.46-2.16,3.39,3.39,0,0,1,.32-1.77.87.87,0,0,1,1.36-.31A5.5,5.5,0,0,1,222.87,140.47Zm2.61,2.22a.65.65,0,0,1-.56,0,1.44,1.44,0,0,1-.61-1.58c.06-.29.29-.42.67-.47a1,1,0,0,1,.91.81A1.05,1.05,0,0,1,225.48,142.69Z" fill="#010101"/></g></svg>